<svg version="1.1" id="Layer_1" xmlns="http://www.w3.org/2000/svg" xmlns:xlink="http://www.w3.org/1999/xlink" x="0px" y="0px"
	 width="100%" viewBox="0 0 380 348" enable-background="new 0 0 380 348" xml:space="preserve">
<path fill="#010000" opacity="1.000000" stroke="none" 
	d="
M216.000000,349.000000 
	C144.024551,349.000000 72.549103,349.000000 1.036828,349.000000 
	C1.036828,233.064392 1.036828,117.128777 1.036828,1.096576 
	C127.558723,1.096576 254.117538,1.096576 380.838196,1.096576 
	C380.838196,116.999817 380.838196,232.999893 380.838196,349.000000 
	C326.128876,349.000000 271.314423,349.000000 216.000000,349.000000 
M137.313644,147.328705 
	C137.305405,146.910599 137.297165,146.492477 137.664322,145.448532 
	C137.969299,142.661087 138.274277,139.873657 138.888702,136.272034 
	C138.881119,135.693863 138.873520,135.115677 139.091949,134.288834 
	C139.065536,133.857285 139.039124,133.425751 139.248657,132.554184 
	C139.367691,132.215652 139.333328,131.893463 139.583557,130.884811 
	C140.116547,126.020721 140.649536,121.156624 141.554443,115.508591 
	C141.620392,114.649170 141.686340,113.789757 142.041229,112.313118 
	C142.115234,110.956360 142.189255,109.599609 142.633179,107.477844 
	C142.687424,106.635033 142.741669,105.792221 143.088470,104.231033 
	C143.405090,100.149155 143.721725,96.067268 144.075714,91.359451 
	C144.089966,90.941658 144.104202,90.523857 144.754807,89.700058 
	C145.678833,82.767120 146.602844,75.834183 147.847488,68.211441 
	C147.946884,66.616608 148.046295,65.021774 148.166946,63.085819 
	C135.419617,63.085819 123.119171,63.245483 110.827286,62.990974 
	C107.015083,62.912041 106.213066,64.328918 105.769333,67.787872 
	C100.051491,112.359222 94.152321,156.907303 88.317673,201.463699 
	C87.617393,206.811401 87.026726,212.173477 86.337921,217.924072 
	C102.880051,217.924072 118.681236,217.888962 134.481812,217.971024 
	C136.339127,217.980667 138.193100,218.634735 139.878067,219.694122 
	C139.747253,221.130798 139.616440,222.567490 139.155182,224.720032 
	C139.143341,225.503906 139.131516,226.287766 138.838623,227.800644 
	C136.558060,244.989868 134.277481,262.179108 131.958801,279.655579 
	C146.402588,279.655579 160.091904,279.655579 174.047134,279.655579 
	C176.450348,260.960876 178.819885,242.528015 181.959290,224.150833 
	C182.512405,225.484528 183.065521,226.818222 183.480362,228.931656 
	C183.809891,231.286987 184.139404,233.642334 184.349548,236.759995 
	C184.544266,237.498367 184.738983,238.236740 184.821396,239.773331 
	C186.340927,253.093750 187.860443,266.414185 189.404343,279.948212 
	C203.070221,279.948212 216.043564,280.004272 229.014206,279.843231 
	C230.067459,279.830139 231.640793,278.546631 232.063263,277.489899 
	C236.906448,265.376434 241.573334,253.192474 246.692017,240.707535 
	C246.754211,240.378845 246.816422,240.050140 246.877121,239.337784 
	C246.877121,239.337784 247.116562,239.037994 247.567535,238.622772 
	C247.692795,238.043030 247.818054,237.463287 247.978394,236.258957 
	C248.327164,235.508682 248.675919,234.758408 249.682999,234.085205 
	C250.504440,234.400299 251.325882,234.715393 252.201965,235.776428 
	C252.084015,236.512863 251.966064,237.249298 251.394730,238.608215 
	C251.296982,240.150879 251.199234,241.693542 251.182373,243.622665 
	C251.182373,243.622665 251.002014,243.973907 250.509460,244.555801 
	C249.720993,251.720825 248.932510,258.885864 248.211304,266.707977 
	C248.107300,267.133942 248.003296,267.559937 247.433899,268.562256 
	C247.181885,272.032257 246.929871,275.502258 247.167038,279.592682 
	C248.462280,279.633270 249.757507,279.673859 251.676422,279.873779 
	C252.100342,279.827515 252.524246,279.781250 253.875702,279.933716 
	C260.910370,279.862732 267.945007,279.791779 275.632996,279.873810 
	C276.074432,279.822937 276.515900,279.772034 277.859558,279.911835 
	C280.620605,279.914154 283.395630,280.073151 286.134766,279.829376 
	C287.031982,279.749512 287.836090,278.623566 288.922241,277.320038 
	C288.907806,276.859314 288.893372,276.398621 289.182312,275.218323 
	C291.319641,258.467560 293.457001,241.716782 295.867859,224.326080 
	C295.860870,223.865646 295.853882,223.405212 296.136230,222.257431 
	C296.310211,220.499405 296.484192,218.741364 296.929199,216.336838 
	C296.913696,215.873199 296.898224,215.409576 297.151672,214.394608 
	C297.167389,213.589127 297.183075,212.783630 297.582336,211.207306 
	C297.687256,209.783356 297.792175,208.359390 298.181702,206.277374 
	C298.337494,204.847763 298.493286,203.418167 298.895599,201.332092 
	C298.878387,200.869598 298.861145,200.407104 299.137299,199.219467 
	C299.793823,193.484970 300.450348,187.750473 301.459534,181.308472 
	C301.536285,180.529587 301.613037,179.750702 301.963501,178.199341 
	C302.615143,170.806564 303.266785,163.413773 304.066498,155.613953 
	C304.066498,155.613953 304.085297,155.181229 304.691315,154.847260 
	C305.102539,150.237747 305.513794,145.628220 306.077087,140.426437 
	C306.087555,140.019043 306.098022,139.611633 306.723328,138.913467 
	C307.301910,135.269287 308.055542,131.638062 308.327393,127.971138 
	C308.389893,127.127907 306.798126,126.162041 305.045685,125.099838 
	C289.036957,125.160500 273.028229,125.221161 256.175629,125.085724 
	C250.999756,123.950745 248.329010,126.252296 247.148407,131.225250 
	C246.436951,134.222122 245.085281,137.067017 243.826065,140.520981 
	C242.897308,143.019775 241.968567,145.518570 240.639816,148.609543 
	C238.773148,153.786636 236.906494,158.963715 234.628845,164.686691 
	C233.450394,167.915146 232.271927,171.143585 230.720657,174.906876 
	C229.777435,177.604813 228.834213,180.302750 227.416443,183.574005 
	C227.309784,184.054047 227.203125,184.534088 226.730942,185.445923 
	C226.724258,185.634384 226.717575,185.822830 226.608536,186.094238 
	C226.608536,186.094238 226.651871,186.218658 226.158905,186.772705 
	C224.538971,190.930450 222.919037,195.088196 221.299088,199.245941 
	C220.975540,199.177368 220.651993,199.108780 220.328430,199.040207 
	C219.827972,196.394043 219.327499,193.747879 218.924454,190.205200 
	C218.682602,189.042023 218.440750,187.878845 218.338150,185.933228 
	C216.814346,173.284485 215.290558,160.635742 213.861572,147.327499 
	C213.754425,146.900070 213.647278,146.472656 213.686050,145.190430 
	C213.051376,139.668930 212.560944,134.124039 211.671768,128.643829 
	C211.471268,127.408096 209.881149,126.397835 208.013245,125.132629 
	C192.369019,125.180786 176.724792,125.228943 160.201263,125.077957 
	C157.627563,125.077957 155.053879,125.077957 152.132111,125.077957 
	C151.984390,127.243912 151.865128,128.992569 151.381134,131.550522 
	C151.321320,132.430084 151.261490,133.309662 150.930008,134.883957 
	C150.710770,136.935455 150.491531,138.986954 150.036621,141.793304 
	C150.061996,142.055679 150.087387,142.318039 149.877747,143.245026 
	C148.212921,155.792526 146.548096,168.340012 144.167892,181.232513 
	C142.122147,181.524933 140.076385,181.817352 137.138535,181.962387 
	C133.717133,182.291733 132.865982,180.589645 133.371262,177.488510 
	C133.818008,174.746582 133.968033,171.956299 134.614120,168.435745 
	C134.665894,167.607635 134.717667,166.779510 135.050354,165.233353 
	C135.501373,161.214447 135.952393,157.195526 136.756363,152.428253 
	C136.790573,151.605591 136.824799,150.782913 137.094391,149.597809 
	C137.080856,149.035233 137.067307,148.472656 137.313644,147.328705 
z"/>
<path fill="#E8CF64" opacity="1.000000" stroke="none" 
	d="
M140.048615,218.990067 
	C138.193100,218.634735 136.339127,217.980667 134.481812,217.971024 
	C118.681236,217.888962 102.880051,217.924072 86.337921,217.924072 
	C87.026726,212.173477 87.617393,206.811401 88.317673,201.463699 
	C94.152321,156.907303 100.051491,112.359222 105.769333,67.787872 
	C106.213066,64.328918 107.015083,62.912041 110.827286,62.990974 
	C123.119171,63.245483 135.419617,63.085819 148.166946,63.085819 
	C148.046295,65.021774 147.946884,66.616608 147.511597,68.434357 
	C146.810303,68.437195 146.444931,68.217110 145.942184,67.646088 
	C143.355072,65.070183 141.708572,65.637169 140.401138,68.820618 
	C138.955017,68.842308 137.898727,68.781013 136.865143,68.292068 
	C135.687119,66.933983 134.486374,66.003555 133.285629,65.073128 
	C132.527817,66.288109 131.770004,67.503098 130.639404,68.803719 
	C129.508240,68.832756 128.749878,68.776154 127.984558,68.324982 
	C127.265244,66.980705 126.629532,65.294975 125.826942,65.211388 
	C122.701492,64.885864 119.483368,64.789444 116.388405,65.230324 
	C115.447495,65.364372 114.792038,67.502258 113.604736,68.821060 
	C112.435623,70.307877 111.170189,71.628944 110.972725,73.093964 
	C106.642693,105.218918 102.420830,137.358490 98.201752,169.498352 
	C96.365913,183.483276 94.582390,197.475052 92.744911,211.697464 
	C109.014351,211.697464 124.869492,211.697464 140.752274,211.697464 
	C141.225937,207.886673 141.653519,204.446579 142.370667,200.981598 
	C143.047470,200.943939 143.434723,200.931152 143.874481,201.358093 
	C143.071518,206.569016 145.126770,212.471298 138.862793,214.806122 
	C139.949814,216.305374 140.930908,217.658554 141.601440,219.009674 
	C140.876770,219.001755 140.462692,218.995911 140.048615,218.990067 
M93.077629,215.203674 
	C93.077629,215.203674 93.335327,215.204300 93.335327,215.204300 
	C93.335327,215.204300 93.027657,214.979263 92.911240,214.296921 
	C91.961128,212.925415 91.011017,211.553909 89.852821,209.882019 
	C87.427872,214.638428 87.505280,214.736679 93.077629,215.203674 
M100.798813,216.023392 
	C109.880768,216.023392 118.962730,216.023392 128.044693,216.023392 
	C128.027664,215.505234 128.010620,214.987061 127.993599,214.468903 
	C117.325439,214.468903 106.657288,214.468903 95.989136,214.468903 
	C95.959869,214.835602 95.930603,215.202316 95.901337,215.569016 
	C97.233665,215.720398 98.566002,215.871765 100.798813,216.023392 
z"/>
<path fill="#E6CE62" opacity="1.000000" stroke="none" 
	d="
M249.024689,234.008133 
	C248.675919,234.758408 248.327164,235.508682 247.735565,236.775360 
	C247.367355,237.873825 247.241959,238.455917 247.116562,239.037994 
	C247.116562,239.037994 246.877121,239.337784 246.666595,239.682419 
	C246.399780,240.360474 246.343475,240.693878 246.287170,241.027298 
	C241.573334,253.192474 236.906448,265.376434 232.063263,277.489899 
	C231.640793,278.546631 230.067459,279.830139 229.014206,279.843231 
	C216.043564,280.004272 203.070221,279.948212 189.404343,279.948212 
	C187.860443,266.414185 186.340927,253.093750 185.083649,239.229797 
	C185.053558,237.790054 184.761246,236.893860 184.468918,235.997665 
	C184.139404,233.642334 183.809891,231.286987 183.797272,228.594681 
	C185.011841,224.581406 185.425003,221.179031 180.029907,221.042023 
	C180.018463,221.029892 179.997437,221.004028 180.011932,220.617706 
	C181.382263,214.493103 182.738129,208.754837 184.535522,203.045746 
	C185.271500,203.093750 185.565903,203.112549 185.984207,203.452362 
	C187.041901,212.190033 187.975708,220.606689 188.701950,229.279343 
	C188.772537,230.654617 189.050705,231.773926 189.501511,233.238403 
	C190.082504,237.727676 190.490860,241.871796 190.720337,246.145935 
	C190.318222,246.473938 190.138748,246.705780 189.777008,247.147522 
	C189.015854,247.862839 188.480759,248.402100 187.712326,248.935822 
	C187.626205,250.272430 187.773422,251.614594 187.939362,253.382507 
	C188.648300,259.735260 189.432205,265.653381 189.997772,271.592255 
	C190.417618,276.001129 191.852142,278.474518 197.074860,278.152740 
	C204.706284,277.682617 212.391525,278.151550 220.045929,277.937592 
	C221.734222,277.890442 223.389450,276.659790 225.171661,275.866180 
	C225.414230,275.435303 225.320618,275.177277 225.010422,274.791992 
	C225.018295,274.599823 225.019958,274.215210 225.395813,274.127686 
	C226.496140,273.334900 227.554840,272.762085 227.894791,271.904419 
	C232.912460,259.244629 237.887329,246.567169 242.765701,233.852997 
	C248.349548,219.300110 253.827576,204.706619 259.442108,189.891861 
	C261.469238,190.561844 263.101959,191.101456 264.851868,191.679810 
	C262.828857,203.727325 260.875214,215.361908 258.696228,226.669449 
	C258.319855,223.569504 258.168823,220.796585 258.029358,217.772675 
	C258.052612,217.354584 258.064331,217.187469 258.280487,216.819885 
	C258.654144,216.081421 258.823334,215.543457 259.024658,214.591797 
	C259.972717,208.372314 260.888580,202.566559 261.804474,196.760788 
	C260.147980,196.992020 259.489655,197.475922 259.206696,198.123810 
	C256.679169,203.910522 254.194336,209.716293 251.748871,215.538269 
	C250.803757,217.788330 250.165207,220.049393 253.235748,221.675125 
	C251.830765,226.033508 250.427719,230.020813 249.024689,234.008133 
z"/>
<path fill="#E3CC64" opacity="1.000000" stroke="none" 
	d="
M181.189423,224.095169 
	C178.819885,242.528015 176.450348,260.960876 174.047134,279.655579 
	C160.091904,279.655579 146.402588,279.655579 131.958801,279.655579 
	C134.277481,262.179108 136.558060,244.989868 139.197357,227.740631 
	C139.197952,232.112839 138.934113,236.555145 138.463058,240.975342 
	C137.285324,252.026917 135.905487,263.059021 134.935440,274.127716 
	C134.830658,275.323486 136.785797,277.727264 137.950256,277.838074 
	C144.886398,278.498047 151.868973,278.725647 158.840942,278.910065 
	C160.377106,278.950714 161.933395,278.231262 163.480408,277.861847 
	C163.426880,277.363922 163.373337,276.865997 163.319809,276.368042 
	C161.773087,276.236084 160.227310,276.005310 158.679443,275.990356 
	C153.681381,275.942017 148.676025,276.116760 143.687866,275.889374 
	C142.110687,275.817474 140.578796,274.752441 139.489304,274.102783 
	C149.587006,274.063599 159.221588,274.063599 169.030563,274.063599 
	C171.456955,255.191971 173.822235,236.795654 176.245148,217.951233 
	C166.406250,217.951233 157.266815,217.851685 148.135895,218.085464 
	C147.073090,218.112671 146.057510,219.984299 144.991776,220.661255 
	C144.909454,219.870300 144.855392,219.418945 144.906479,218.642853 
	C146.077835,216.861176 147.144058,215.404205 148.592789,213.947906 
	C152.987228,214.293076 156.999146,214.637558 161.386810,215.160538 
	C163.207047,215.570450 164.662659,216.052170 166.094070,215.988663 
	C171.450134,215.751053 176.764908,215.428299 179.997437,221.004028 
	C179.997437,221.004028 180.018463,221.029892 180.029938,221.383820 
	C180.424072,222.523560 180.806763,223.309357 181.189423,224.095169 
z"/>
<path fill="#F5DA5D" opacity="1.000000" stroke="none" 
	d="
M258.017792,218.023682 
	C258.168823,220.796585 258.319855,223.569504 258.742279,227.031525 
	C258.820953,228.162613 258.508453,228.590042 258.452820,229.048615 
	C256.722595,243.312225 254.989609,257.575775 253.389297,271.854126 
	C253.307877,272.580658 254.401443,273.438873 254.951920,274.444885 
	C254.955917,274.653961 254.998871,275.070038 255.336823,275.308167 
	C264.773743,275.383423 273.872681,275.220520 283.343201,274.956909 
	C287.641205,271.715240 285.921722,267.790588 285.169678,263.665405 
	C285.238403,262.883453 285.358154,262.443329 285.786438,261.841614 
	C287.052673,256.023224 288.213104,250.390823 288.897552,244.701172 
	C289.361267,240.846786 289.156036,236.911911 289.204590,232.668915 
	C289.288055,231.887527 289.416931,231.450256 289.813293,230.885895 
	C290.085388,229.513702 290.089996,228.268616 290.043091,226.688629 
	C290.087433,225.916245 290.183289,225.478729 290.609131,224.887634 
	C292.602356,213.599686 294.286774,202.468353 295.879242,191.323898 
	C295.980499,190.615189 295.367920,189.804489 295.037415,188.633789 
	C295.162720,187.155136 295.338074,186.083923 295.760559,185.025879 
	C296.336670,185.010162 296.665070,184.975937 297.197632,185.158615 
	C297.961273,185.585983 298.520203,185.791092 299.064423,186.437332 
	C298.981140,191.233841 298.912537,195.589218 298.843933,199.944611 
	C298.861145,200.407104 298.878387,200.869598 298.473877,201.782135 
	C298.000488,203.799942 297.948761,205.367691 297.897095,206.935440 
	C297.792175,208.359390 297.687256,209.783356 297.168274,211.723694 
	C296.797028,213.142029 296.839874,214.043976 296.882721,214.945938 
	C296.898224,215.409576 296.913696,215.873199 296.487244,216.794724 
	C295.979187,219.149994 295.913055,221.047394 295.846893,222.944778 
	C295.853882,223.405212 295.860870,223.865646 295.405212,224.786346 
	C293.644592,231.723373 292.156250,238.169296 291.100403,244.685303 
	C289.969360,251.665451 289.056213,258.694611 288.426239,265.736267 
	C288.125641,269.096405 288.700592,272.534882 288.878937,275.937897 
	C288.893372,276.398621 288.907806,276.859314 288.366760,277.656097 
	C284.193298,278.568481 280.575317,279.144806 276.957336,279.721130 
	C276.515900,279.772034 276.074432,279.822937 274.951172,279.592590 
	C267.907410,278.928497 261.547577,278.491302 255.180450,278.237518 
	C254.457397,278.208710 253.693237,279.210846 252.948151,279.734924 
	C252.524246,279.781250 252.100342,279.827515 251.242111,279.473785 
	C250.308762,277.911499 249.279419,276.693695 249.394318,275.595673 
	C250.338074,266.577881 251.572372,257.590515 252.522919,248.573303 
	C252.720062,246.703156 252.103775,244.747253 251.804840,242.517090 
	C251.848572,241.796860 251.949860,241.390381 252.281769,240.693329 
	C253.333359,235.912384 254.154312,231.422012 255.209961,226.672272 
	C255.293793,223.931091 255.142944,221.449249 254.994080,218.596313 
	C254.996048,216.943985 254.996048,215.662750 254.996048,214.237274 
	C256.553314,214.536621 257.772919,214.771057 258.992523,215.005493 
	C258.823334,215.543457 258.654144,216.081421 258.142090,216.912231 
	C257.610443,217.527298 257.683289,217.800171 258.017792,218.023682 
z"/>
<path fill="#ECD45E" opacity="1.000000" stroke="none" 
	d="
M241.039825,148.017380 
	C241.968567,145.518570 242.897308,143.019775 244.250473,140.151123 
	C245.038284,139.462860 245.550613,139.215820 245.742599,138.815247 
	C248.362625,133.348602 249.691071,126.824318 257.019501,125.281822 
	C273.028229,125.221161 289.036957,125.160500 305.589478,125.534363 
	C308.117615,130.346741 305.915741,131.347137 301.588318,130.985046 
	C286.542328,130.944336 271.969482,131.006027 257.398682,130.861221 
	C254.495422,130.832382 253.092819,131.713791 252.007080,134.502960 
	C249.623062,140.627243 246.733841,146.554871 244.039062,152.620667 
	C244.027237,152.678543 243.980972,152.916534 243.999908,152.940399 
	C244.018829,152.964279 243.967484,152.997208 243.639221,152.896332 
	C242.553909,151.202774 241.796875,149.610077 241.039825,148.017380 
z"/>
<path fill="#DAC461" opacity="1.000000" stroke="none" 
	d="
M161.011063,214.982040 
	C156.999146,214.637558 152.987228,214.293076 148.340958,213.760284 
	C144.009491,213.168396 145.147018,210.650314 145.395081,208.430511 
	C146.072815,202.366013 146.675797,196.293137 147.308380,190.223587 
	C146.747849,190.154755 146.187302,190.085922 145.626770,190.017090 
	C145.025177,193.650848 144.423569,197.284607 143.821976,200.918365 
	C143.434723,200.931152 143.047470,200.943939 142.301758,200.565277 
	C142.672653,195.863739 143.401993,191.553635 144.239563,186.603943 
	C137.978897,186.603943 132.565903,186.603943 126.407768,186.603943 
	C127.699936,177.664230 128.902893,169.341797 130.335876,161.012512 
	C130.565918,161.005676 131.026169,161.011215 131.007446,161.463837 
	C130.988739,166.528442 130.988739,171.140442 130.988739,175.752441 
	C131.278046,175.760742 131.567368,175.769043 131.856674,175.777344 
	C132.273804,173.875336 132.690948,171.973328 133.269562,169.988358 
	C133.703720,169.666046 133.976379,169.426697 134.249054,169.187347 
	C133.968033,171.956299 133.818008,174.746582 133.371262,177.488510 
	C132.865982,180.589645 133.717133,182.291733 137.590576,182.419342 
	C141.812347,186.432648 146.308258,186.608673 151.463684,185.715485 
	C154.280792,185.527893 156.678040,185.294006 159.382233,185.067734 
	C160.098541,185.069000 160.507858,185.062622 161.272568,185.270691 
	C166.826187,185.335480 172.024429,185.185852 177.493774,185.045532 
	C178.124481,185.067062 178.484085,185.079300 178.887329,185.398239 
	C178.932816,186.116074 178.934677,186.527206 178.480026,186.857468 
	C169.892929,186.733444 161.759857,186.577881 153.634186,186.757278 
	C152.273468,186.787323 149.934357,188.097992 149.762695,189.108368 
	C148.496719,196.559677 147.666122,204.084976 146.673401,211.781830 
	C156.625229,211.781830 166.012070,211.781830 175.607498,211.781830 
	C176.796722,203.706558 177.950302,195.873306 179.319412,188.358490 
	C179.338943,194.404800 179.075562,200.131378 178.965179,205.860901 
	C178.844727,212.113388 177.161041,213.741638 170.678406,214.011658 
	C167.448090,214.146194 164.233032,214.646942 161.011063,214.982040 
z"/>
<path fill="#E8D165" opacity="1.000000" stroke="none" 
	d="
M142.795914,104.949409 
	C142.741669,105.792221 142.687424,106.635033 142.336075,108.113609 
	C141.943405,110.143028 141.847839,111.536682 141.752289,112.930336 
	C141.686340,113.789757 141.620392,114.649170 141.230652,116.188034 
	C140.319763,121.774193 139.732666,126.680908 139.145584,131.587616 
	C139.333328,131.893463 139.367691,132.215652 139.072891,133.027313 
	C138.886734,133.846115 138.876343,134.191818 138.865936,134.537506 
	C138.873520,135.115677 138.881119,135.693863 138.528473,136.929886 
	C136.301514,139.089844 134.434799,140.591965 132.541122,141.915192 
	C132.514145,141.736313 132.851593,141.605759 132.919678,141.190491 
	C132.997818,140.217041 133.007889,139.658844 132.972504,138.656647 
	C135.925369,115.180763 138.923676,92.148880 142.234512,69.132065 
	C143.047531,69.503258 144.020386,69.931961 143.978470,70.204742 
	C143.211456,75.196404 142.116074,80.145287 141.532761,85.154770 
	C141.145599,88.479507 139.167603,92.246346 143.011047,95.340866 
	C142.709381,96.485260 142.413895,97.296211 141.978699,97.992798 
	C141.894623,98.253815 141.950256,98.629204 142.021301,99.394928 
	C142.289795,101.506653 142.542862,103.228035 142.795914,104.949409 
z"/>
<path fill="#FBDF5B" opacity="1.000000" stroke="none" 
	d="
M161.080566,125.277100 
	C176.724792,125.228943 192.369019,125.180786 208.488708,125.574631 
	C209.164520,128.361969 210.925583,131.625565 206.025467,130.991241 
	C206.007385,131.001816 206.016327,130.961594 205.954300,130.665100 
	C204.905167,130.484665 203.918060,130.600723 202.497833,130.786133 
	C199.726990,130.807663 197.389297,130.759842 194.876282,130.373016 
	C194.293396,129.767853 193.886322,129.270050 193.478195,129.269196 
	C181.827103,129.244705 170.175690,129.249008 158.525452,129.363037 
	C158.046585,129.367737 157.578568,130.478851 157.096359,131.076874 
	C157.087234,131.079224 157.066177,131.079147 156.783768,131.107880 
	C155.632004,131.592697 154.762650,132.048767 153.464172,132.729965 
	C153.625946,130.770081 153.740189,129.386047 154.156433,127.759613 
	C156.665833,126.770500 158.873199,126.023804 161.080566,125.277100 
z"/>
<path fill="#F4D759" opacity="1.000000" stroke="none" 
	d="
M139.026169,274.141937 
	C140.578796,274.752441 142.110687,275.817474 143.687866,275.889374 
	C148.676025,276.116760 153.681381,275.942017 158.679443,275.990356 
	C160.227310,276.005310 161.773087,276.236084 163.319809,276.368042 
	C163.373337,276.865997 163.426880,277.363922 163.480408,277.861847 
	C161.933395,278.231262 160.377106,278.950714 158.840942,278.910065 
	C151.868973,278.725647 144.886398,278.498047 137.950256,277.838074 
	C136.785797,277.727264 134.830658,275.323486 134.935440,274.127716 
	C135.905487,263.059021 137.285324,252.026917 138.463058,240.975342 
	C138.934113,236.555145 139.197952,232.112839 139.337891,227.376129 
	C139.131516,226.287766 139.143341,225.503906 139.570724,224.368225 
	C140.318832,223.984833 140.651398,223.953262 141.334732,224.058029 
	C141.830750,227.138733 141.976013,230.083084 142.091721,233.415314 
	C142.297592,235.527328 142.533020,237.251480 142.822556,239.317062 
	C142.764938,240.099655 142.653198,240.540802 142.238190,241.135330 
	C141.616791,242.853439 141.298691,244.418167 140.766068,246.230682 
	C140.395981,247.326248 140.240417,248.174042 140.069611,249.409454 
	C140.269730,251.520248 140.485062,253.243469 140.746445,255.319458 
	C140.644150,256.114136 140.495834,256.556061 140.060516,257.170380 
	C139.423080,261.547302 139.072632,265.751831 138.760300,270.421326 
	C138.610245,271.794159 138.422104,272.702026 138.250977,273.683716 
	C138.267975,273.757538 138.664581,273.978058 138.787857,273.946472 
	C138.911133,273.914886 139.026169,274.141937 139.026169,274.141937 
z"/>
<path fill="#F4D759" opacity="1.000000" stroke="none" 
	d="
M218.198914,186.715668 
	C218.440750,187.878845 218.682602,189.042023 218.663330,190.960876 
	C217.537186,195.972168 218.254166,199.779266 221.440933,203.065979 
	C223.339920,198.524857 225.145096,194.208069 226.997223,189.928894 
	C227.044159,189.966476 227.135590,190.044617 227.109772,190.478134 
	C227.030914,199.197296 223.555252,206.126144 218.748688,212.723495 
	C217.569992,210.903336 217.406296,209.187836 216.917221,207.570724 
	C216.141235,205.005035 215.147827,202.505096 214.235596,199.643036 
	C214.271835,198.866806 214.318878,198.424835 214.547455,197.627655 
	C214.050079,192.505295 213.371185,187.738159 212.529938,182.674011 
	C212.362579,181.930817 212.357559,181.484665 212.533142,180.684570 
	C212.713760,175.167358 212.713760,170.004074 212.713760,164.840775 
	C213.245880,164.801788 213.777985,164.762802 214.310104,164.723801 
	C214.885880,169.407608 215.328690,174.113113 216.088470,178.766876 
	C216.528091,181.459549 217.478424,184.068848 218.198914,186.715668 
z"/>
<path fill="#ECD45E" opacity="1.000000" stroke="none" 
	d="
M299.079132,185.996216 
	C298.520203,185.791092 297.961273,185.585983 297.348450,184.831085 
	C297.265717,180.197647 297.236877,176.113953 297.164124,171.637299 
	C297.314453,170.489502 297.508759,169.734695 297.981873,168.800034 
	C298.913757,162.086960 299.566864,155.553741 300.167725,148.672821 
	C300.248993,147.881882 300.382507,147.438660 300.751160,146.743149 
	C302.074127,142.171524 303.161926,137.852203 304.249695,133.532883 
	C304.737244,133.581421 305.224762,133.629944 305.712280,133.678482 
	C305.844360,135.520401 305.976440,137.362320 306.108490,139.204239 
	C306.098022,139.611633 306.087555,140.019043 305.780670,141.028442 
	C305.017944,146.147369 304.551636,150.664307 304.085297,155.181229 
	C304.085297,155.181229 304.066498,155.613953 303.792511,156.068207 
	C303.114380,158.942245 302.512177,161.348618 302.347290,163.784592 
	C302.005157,168.838684 301.895203,173.908478 301.689758,178.971817 
	C301.613037,179.750702 301.536285,180.529587 301.056763,181.832031 
	C300.129059,183.569122 299.604095,184.782669 299.079132,185.996216 
z"/>
<path fill="#DCC664" opacity="1.000000" stroke="none" 
	d="
M218.268524,186.324448 
	C217.478424,184.068848 216.528091,181.459549 216.088470,178.766876 
	C215.328690,174.113113 214.885880,169.407608 214.310104,164.723801 
	C213.777985,164.762802 213.245880,164.801788 212.713760,164.840775 
	C212.713760,170.004074 212.713760,175.167358 212.380722,180.283447 
	C210.504654,166.498169 208.961609,152.760101 207.639526,139.297791 
	C209.158600,146.439789 210.456711,153.306030 211.754837,160.172256 
	C212.025879,160.133820 212.296921,160.095367 212.567978,160.056915 
	C212.967575,156.033615 213.367172,152.010300 213.766785,147.987000 
	C215.290558,160.635742 216.814346,173.284485 218.268524,186.324448 
z"/>
<path fill="#E6CE62" opacity="1.000000" stroke="none" 
	d="
M227.096466,185.014130 
	C227.203125,184.534088 227.309784,184.054047 227.932785,183.148529 
	C229.330582,179.939392 230.212036,177.155716 231.093475,174.372040 
	C232.271927,171.143585 233.450394,167.915146 234.901703,164.663116 
	C236.380356,166.090347 237.586166,167.541153 238.775879,169.356644 
	C237.504471,172.814285 236.249161,175.907257 234.732559,179.244507 
	C234.036423,180.838120 233.601562,182.187454 233.209900,183.674683 
	C233.253113,183.812592 233.033066,183.999985 232.744507,184.173706 
	C230.682495,186.246475 228.909042,188.145538 227.135590,190.044617 
	C227.135590,190.044617 227.044159,189.966476 226.993408,189.470734 
	C226.845734,188.056213 226.748810,187.137436 226.651871,186.218658 
	C226.651871,186.218658 226.608536,186.094238 226.823700,185.990936 
	C227.119766,185.806122 227.275146,185.716751 227.267532,185.644531 
	C227.245010,185.430756 227.158142,185.223770 227.096466,185.014130 
z"/>
<path fill="#E1CA64" opacity="1.000000" stroke="none" 
	d="
M289.030640,275.578125 
	C288.700592,272.534882 288.125641,269.096405 288.426239,265.736267 
	C289.056213,258.694611 289.969360,251.665451 291.100403,244.685303 
	C292.156250,238.169296 293.644592,231.723373 295.268463,225.106293 
	C293.457001,241.716782 291.319641,258.467560 289.030640,275.578125 
z"/>
<path fill="#E1CA64" opacity="1.000000" stroke="none" 
	d="
M150.272293,141.038452 
	C150.491531,138.986954 150.710770,136.935455 151.111389,134.568527 
	C151.292755,134.253098 151.359955,134.341797 151.413055,134.484314 
	C151.602890,134.786255 151.769470,134.903214 151.979095,135.233612 
	C152.002747,135.659988 152.013245,135.830490 152.011505,136.434265 
	C151.999512,138.615494 151.999771,140.363449 151.993286,142.453796 
	C151.982117,143.481049 151.977676,144.165924 151.734039,145.189728 
	C150.290894,154.032715 149.086914,162.536789 147.680130,171.284348 
	C147.324783,172.358994 147.172256,173.190140 147.012695,174.390839 
	C146.950424,175.496658 146.895218,176.232925 146.644135,177.254333 
	C146.296188,178.677353 146.144150,179.815231 145.714096,180.950287 
	C145.251801,180.927490 145.067535,180.907501 144.883270,180.887512 
	C146.548096,168.340012 148.212921,155.792526 150.041168,143.081818 
	C150.227173,142.291901 150.249741,141.665176 150.272293,141.038452 
z"/>
<path fill="#E8D165" opacity="1.000000" stroke="none" 
	d="
M238.791962,168.991959 
	C237.586166,167.541153 236.380356,166.090347 235.107178,164.390167 
	C236.906494,158.963715 238.773148,153.786636 240.839813,148.313461 
	C241.796875,149.610077 242.553909,151.202774 243.699432,153.302521 
	C242.322601,158.870346 240.557281,163.931152 238.791962,168.991959 
M239.131531,161.312622 
	C239.227966,161.445114 239.298782,161.625061 239.428833,161.695251 
	C239.535004,161.752518 239.819092,161.718475 239.841934,161.657104 
	C240.534439,159.795059 241.204315,157.924606 241.877731,156.055466 
	C241.414307,155.942383 240.950867,155.829285 240.487427,155.716202 
	C240.019608,157.382614 239.551804,159.049026 239.131531,161.312622 
z"/>
<path fill="#FBDF5B" opacity="1.000000" stroke="none" 
	d="
M213.814178,147.657257 
	C213.367172,152.010300 212.967575,156.033615 212.567978,160.056915 
	C212.296921,160.095367 212.025879,160.133820 211.754837,160.172256 
	C210.456711,153.306030 209.158600,146.439789 207.515717,138.933929 
	C207.149521,137.532074 207.128067,136.769852 207.346466,135.792084 
	C210.570633,132.866837 210.530823,135.560959 211.046814,137.465805 
	C211.825333,140.339844 212.704010,143.186783 213.540131,146.045227 
	C213.647278,146.472656 213.754425,146.900070 213.814178,147.657257 
z"/>
<path fill="#E1CA64" opacity="1.000000" stroke="none" 
	d="
M251.862381,242.830872 
	C252.103775,244.747253 252.720062,246.703156 252.522919,248.573303 
	C251.572372,257.590515 250.338074,266.577881 249.394318,275.595673 
	C249.279419,276.693695 250.308762,277.911499 250.930267,279.394104 
	C249.757507,279.673859 248.462280,279.633270 247.041748,278.876587 
	C247.244064,274.768951 247.571686,271.377411 247.899292,267.985901 
	C248.003296,267.559937 248.107300,267.133942 248.382935,266.040558 
	C249.370392,258.240051 250.186203,251.106979 251.002014,243.973907 
	C251.002014,243.973907 251.182373,243.622665 251.331818,243.327179 
	C251.481277,243.031693 251.862381,242.830872 251.862381,242.830872 
z"/>
<path fill="#DCC664" opacity="1.000000" stroke="none" 
	d="
M213.613098,145.617828 
	C212.704010,143.186783 211.825333,140.339844 211.046814,137.465805 
	C210.530823,135.560959 210.570633,132.866837 207.204620,135.452560 
	C206.563141,133.879288 206.303345,132.429977 206.043549,130.980667 
	C210.925583,131.625565 209.164520,128.361969 208.947449,125.650208 
	C209.881149,126.397835 211.471268,127.408096 211.671768,128.643829 
	C212.560944,134.124039 213.051376,139.668930 213.613098,145.617828 
z"/>
<path fill="#E1CA64" opacity="1.000000" stroke="none" 
	d="
M306.415924,139.058853 
	C305.976440,137.362320 305.844360,135.520401 305.712280,133.678482 
	C305.224762,133.629944 304.737244,133.581421 304.249695,133.532883 
	C303.161926,137.852203 302.074127,142.171524 300.706665,146.338135 
	C300.972046,141.128586 301.517090,136.071747 302.062134,131.014893 
	C305.915741,131.347137 308.117615,130.346741 306.050476,125.610748 
	C306.798126,126.162041 308.389893,127.127907 308.327393,127.971138 
	C308.055542,131.638062 307.301910,135.269287 306.415924,139.058853 
z"/>
<path fill="#E8D165" opacity="1.000000" stroke="none" 
	d="
M131.026169,161.011200 
	C131.026169,161.011215 130.565918,161.005676 130.294556,160.588501 
	C130.249329,159.068954 130.475433,157.966568 130.897919,156.644302 
	C131.136948,154.955032 131.179596,153.485657 131.182526,151.595673 
	C131.361267,150.367416 131.579742,149.559723 131.886993,148.552094 
	C131.982162,147.917923 131.988571,147.483704 131.953156,146.781433 
	C131.970398,146.342438 132.029449,146.171494 132.353271,146.172058 
	C134.649719,146.084198 132.457657,151.173294 136.107269,149.194244 
	C136.389786,149.621155 136.602448,149.814819 136.859024,149.960251 
	C136.824799,150.782913 136.790573,151.605591 136.402771,153.065094 
	C135.371704,156.123398 134.694214,158.544830 133.642303,160.972626 
	C132.520660,160.989716 131.773407,161.000458 131.026169,161.011200 
z"/>
<path fill="#E7CE65" opacity="1.000000" stroke="none" 
	d="
M151.973236,144.850800 
	C151.977676,144.165924 151.982117,143.481049 152.323608,142.342087 
	C155.268250,139.620575 156.388153,137.514114 152.023743,136.000977 
	C152.013245,135.830490 152.002747,135.659988 151.912735,135.094452 
	C151.729523,134.508591 151.571762,134.389374 151.359955,134.341797 
	C151.359955,134.341797 151.292755,134.253098 151.247208,134.221161 
	C151.261490,133.309662 151.321320,132.430084 151.682068,130.922562 
	C152.606796,129.530411 153.230606,128.766220 153.854416,128.002029 
	C153.740189,129.386047 153.625946,130.770081 153.464172,132.729965 
	C154.762650,132.048767 155.632004,131.592697 156.763046,131.533966 
	C156.281067,136.948059 155.537384,141.964783 154.576385,146.771454 
	C153.563782,145.991180 152.768494,145.420990 151.973236,144.850800 
z"/>
<path fill="#FDDF52" opacity="1.000000" stroke="none" 
	d="
M144.525574,181.060013 
	C145.067535,180.907501 145.251801,180.927490 146.074493,180.972931 
	C148.488190,181.989456 150.263458,182.980560 151.835724,184.132187 
	C151.436417,184.751541 151.240097,185.210358 151.043793,185.669189 
	C146.308258,186.608673 141.812347,186.432648 138.036621,182.493027 
	C140.076385,181.817352 142.122147,181.524933 144.525574,181.060013 
z"/>
<path fill="#DCC664" opacity="1.000000" stroke="none" 
	d="
M226.405396,186.495682 
	C226.748810,187.137436 226.845734,188.056213 226.946472,189.433136 
	C225.145096,194.208069 223.339920,198.524857 221.440933,203.065979 
	C218.254166,199.779266 217.537186,195.972168 218.614609,191.409119 
	C219.327499,193.747879 219.827972,196.394043 220.328430,199.040207 
	C220.651993,199.108780 220.975540,199.177368 221.299088,199.245941 
	C222.919037,195.088196 224.538971,190.930450 226.405396,186.495682 
z"/>
<path fill="#E1CA64" opacity="1.000000" stroke="none" 
	d="
M256.597565,125.183777 
	C249.691071,126.824318 248.362625,133.348602 245.742599,138.815247 
	C245.550613,139.215820 245.038284,139.462860 244.348083,139.880737 
	C245.085281,137.067017 246.436951,134.222122 247.148407,131.225250 
	C248.329010,126.252296 250.999756,123.950745 256.597565,125.183777 
z"/>
<path fill="#DAC461" opacity="1.000000" stroke="none" 
	d="
M135.993515,149.009232 
	C132.457657,151.173294 134.649719,146.084198 132.280823,145.843079 
	C132.151794,144.259766 132.359940,143.176926 132.568100,142.094086 
	C134.434799,140.591965 136.301514,139.089844 138.373749,137.336975 
	C138.274277,139.873657 137.969299,142.661087 137.199310,145.953766 
	C136.493378,147.299652 136.252457,148.140320 136.007294,148.988037 
	C136.003036,148.995087 135.993515,149.009232 135.993515,149.009232 
M133.499893,144.542816 
	C133.499893,144.542816 133.474014,144.483261 133.499893,144.542816 
z"/>
<path fill="#E8D165" opacity="1.000000" stroke="none" 
	d="
M146.079544,67.997025 
	C146.444931,68.217110 146.810303,68.437195 147.351288,68.779266 
	C146.602844,75.834183 145.678833,82.767120 144.390640,89.865433 
	C144.026474,90.030800 143.927856,89.964516 143.943146,89.523651 
	C144.665466,82.054207 145.372498,75.025612 146.079544,67.997025 
z"/>
<path fill="#E1CA64" opacity="1.000000" stroke="none" 
	d="
M301.826630,178.585571 
	C301.895203,173.908478 302.005157,168.838684 302.347290,163.784592 
	C302.512177,161.348618 303.114380,158.942245 303.718475,156.271729 
	C303.266785,163.413773 302.615143,170.806564 301.826630,178.585571 
z"/>
<path fill="#E1CA64" opacity="1.000000" stroke="none" 
	d="
M299.064423,186.437332 
	C299.604095,184.782669 300.129059,183.569122 300.880432,182.185791 
	C300.450348,187.750473 299.793823,193.484970 298.990601,199.582031 
	C298.912537,195.589218 298.981140,191.233841 299.064423,186.437332 
z"/>
<path fill="#271C05" opacity="1.000000" stroke="none" 
	d="
M249.353836,234.046661 
	C250.427719,230.020813 251.830765,226.033508 253.444031,221.661041 
	C253.654251,221.275909 253.973801,221.010284 253.931396,221.426392 
	C253.928162,223.234528 253.967331,224.626587 253.783493,226.347046 
	C253.089417,229.460464 252.618362,232.245468 252.147324,235.030487 
	C251.325882,234.715393 250.504440,234.400299 249.353836,234.046661 
z"/>
<path fill="#271C05" opacity="1.000000" stroke="none" 
	d="
M250.755737,244.264862 
	C250.186203,251.106979 249.370392,258.240051 248.349304,265.712006 
	C248.932510,258.885864 249.720993,251.720825 250.755737,244.264862 
z"/>
<path fill="#DAC461" opacity="1.000000" stroke="none" 
	d="
M134.016708,160.966278 
	C134.694214,158.544830 135.371704,156.123398 136.226288,153.439285 
	C135.952393,157.195526 135.501373,161.214447 134.684799,165.617340 
	C134.319244,166.001328 133.866348,166.009872 133.899811,165.590485 
	C133.961090,163.769485 133.988892,162.367889 134.016708,160.966278 
z"/>
<path fill="#DCC664" opacity="1.000000" stroke="none" 
	d="
M154.156433,127.759613 
	C153.230606,128.766220 152.606796,129.530411 151.864441,130.517914 
	C151.865128,128.992569 151.984390,127.243912 152.132111,125.077957 
	C155.053879,125.077957 157.627563,125.077957 160.640915,125.177528 
	C158.873199,126.023804 156.665833,126.770500 154.156433,127.759613 
z"/>
<path fill="#E1CA64" opacity="1.000000" stroke="none" 
	d="
M304.388306,155.014252 
	C304.551636,150.664307 305.017944,146.147369 305.704651,141.324585 
	C305.513794,145.628220 305.102539,150.237747 304.388306,155.014252 
z"/>
<path fill="#E1CA64" opacity="1.000000" stroke="none" 
	d="
M253.411926,279.834320 
	C253.693237,279.210846 254.457397,278.208710 255.180450,278.237518 
	C261.547577,278.491302 267.907410,278.928497 274.624512,279.516113 
	C267.945007,279.791779 260.910370,279.862732 253.411926,279.834320 
z"/>
<path fill="#DAC461" opacity="1.000000" stroke="none" 
	d="
M142.118408,98.107162 
	C142.413895,97.296211 142.709381,96.485260 143.021332,94.976646 
	C143.069946,93.554634 143.102112,92.830276 143.359131,92.067070 
	C143.583984,92.028214 144.038345,91.985390 144.038345,91.985390 
	C143.721725,96.067268 143.405090,100.149155 142.942200,104.590225 
	C142.542862,103.228035 142.289795,101.506653 142.046478,99.170189 
	C142.056244,98.555099 142.118393,98.107162 142.118408,98.107162 
z"/>
<path fill="#E1CA64" opacity="1.000000" stroke="none" 
	d="
M277.408447,279.816498 
	C280.575317,279.144806 284.193298,278.568481 288.247040,277.984070 
	C287.836090,278.623566 287.031982,279.749512 286.134766,279.829376 
	C283.395630,280.073151 280.620605,279.914154 277.408447,279.816498 
z"/>
<path fill="#DAC461" opacity="1.000000" stroke="none" 
	d="
M139.364563,131.236206 
	C139.732666,126.680908 140.319763,121.774193 141.044693,116.580009 
	C140.649536,121.156624 140.116547,126.020721 139.364563,131.236206 
z"/>
<path fill="#E1CA64" opacity="1.000000" stroke="none" 
	d="
M252.174652,235.403458 
	C252.618362,232.245468 253.089417,229.460464 253.974838,226.465790 
	C254.626984,226.444504 254.822327,226.669662 254.975281,226.931641 
	C254.154312,231.422012 253.333359,235.912384 252.223236,240.320831 
	C251.905426,239.487839 251.876785,238.736786 251.848114,237.985733 
	C251.966064,237.249298 252.084015,236.512863 252.174652,235.403458 
z"/>
<path fill="#E7CE65" opacity="1.000000" stroke="none" 
	d="
M181.574371,224.123001 
	C180.806763,223.309357 180.424072,222.523560 180.041367,221.395966 
	C185.425003,221.179031 185.011841,224.581406 183.866425,228.204803 
	C183.065521,226.818222 182.512405,225.484528 181.574371,224.123001 
z"/>
<path fill="#271C05" opacity="1.000000" stroke="none" 
	d="
M247.666595,268.274078 
	C247.571686,271.377411 247.244064,274.768951 246.797150,278.566345 
	C246.929871,275.502258 247.181885,272.032257 247.666595,268.274078 
z"/>
<path fill="#E3CC64" opacity="1.000000" stroke="none" 
	d="
M140.983963,223.921692 
	C140.651398,223.953262 140.318832,223.984833 139.735947,224.010284 
	C139.616440,222.567490 139.747253,221.130798 139.963348,219.342102 
	C140.462692,218.995911 140.876770,219.001755 141.818451,219.204987 
	C142.515732,219.946274 142.685425,220.490143 142.606216,221.195129 
	C141.899521,222.211395 141.441742,223.066544 140.983963,223.921692 
z"/>
<path fill="#DCC664" opacity="1.000000" stroke="none" 
	d="
M230.907074,174.639465 
	C230.212036,177.155716 229.330582,179.939392 228.170059,182.861877 
	C228.834213,180.302750 229.777435,177.604813 230.907074,174.639465 
z"/>
<path fill="#E1CA64" opacity="1.000000" stroke="none" 
	d="
M295.991577,222.601105 
	C295.913055,221.047394 295.979187,219.149994 296.351746,217.117981 
	C296.484192,218.741364 296.310211,220.499405 295.991577,222.601105 
z"/>
<path fill="#E1CA64" opacity="1.000000" stroke="none" 
	d="
M298.039368,206.606415 
	C297.948761,205.367691 298.000488,203.799942 298.350647,202.110382 
	C298.493286,203.418167 298.337494,204.847763 298.039368,206.606415 
z"/>
<path fill="#E8D165" opacity="1.000000" stroke="none" 
	d="
M133.866364,166.009872 
	C133.866348,166.009872 134.319244,166.001328 134.544342,165.976364 
	C134.717667,166.779510 134.665894,167.607635 134.431580,168.811554 
	C133.976379,169.426697 133.703720,169.666046 133.240356,169.627319 
	C133.321884,168.236115 133.594116,167.123001 133.866364,166.009872 
z"/>
<path fill="#DAC461" opacity="1.000000" stroke="none" 
	d="
M141.896759,112.621727 
	C141.847839,111.536682 141.943405,110.143028 142.151123,108.496109 
	C142.189255,109.599609 142.115234,110.956360 141.896759,112.621727 
z"/>
<path fill="#E1CA64" opacity="1.000000" stroke="none" 
	d="
M297.017212,214.670273 
	C296.839874,214.043976 296.797028,213.142029 296.976501,212.109100 
	C297.183075,212.783630 297.167389,213.589127 297.017212,214.670273 
z"/>
<path fill="#E7CE65" opacity="1.000000" stroke="none" 
	d="
M184.409241,236.378830 
	C184.761246,236.893860 185.053558,237.790054 185.139801,238.830688 
	C184.738983,238.236740 184.544266,237.498367 184.409241,236.378830 
z"/>
<path fill="#271C05" opacity="1.000000" stroke="none" 
	d="
M251.621429,238.296967 
	C251.876785,238.736786 251.905426,239.487839 251.992615,240.611389 
	C251.949860,241.390381 251.848572,241.796860 251.804840,242.517090 
	C251.862381,242.830872 251.481277,243.031693 251.291382,243.133942 
	C251.199234,241.693542 251.296982,240.150879 251.621429,238.296967 
z"/>
<path fill="#DAC461" opacity="1.000000" stroke="none" 
	d="
M136.976715,149.779022 
	C136.602448,149.814819 136.389786,149.621155 136.107269,149.194244 
	C135.993515,149.009232 136.003036,148.995087 136.210266,148.840820 
	C136.629578,148.427734 136.841660,148.168915 137.053757,147.910080 
	C137.067307,148.472656 137.080856,149.035233 136.976715,149.779022 
z"/>
<path fill="#E8D165" opacity="1.000000" stroke="none" 
	d="
M137.183701,147.619385 
	C136.841660,148.168915 136.629578,148.427734 136.214508,148.833771 
	C136.252457,148.140320 136.493378,147.299652 137.011612,146.266678 
	C137.297165,146.492477 137.305405,146.910599 137.183701,147.619385 
z"/>
<path fill="#DCC664" opacity="1.000000" stroke="none" 
	d="
M150.154449,141.415878 
	C150.249741,141.665176 150.227173,142.291901 150.158691,142.749512 
	C150.087387,142.318039 150.061996,142.055679 150.154449,141.415878 
z"/>
<path fill="#271C05" opacity="1.000000" stroke="none" 
	d="
M247.342041,238.830383 
	C247.241959,238.455917 247.367355,237.873825 247.718048,237.087646 
	C247.818054,237.463287 247.692795,238.043030 247.342041,238.830383 
z"/>
<path fill="#E8D165" opacity="1.000000" stroke="none" 
	d="
M144.057037,91.672424 
	C144.038345,91.985390 143.583984,92.028214 143.354507,91.766861 
	C143.392639,90.991837 143.660248,90.478180 143.927856,89.964516 
	C143.927856,89.964516 144.026474,90.030800 144.072449,90.068436 
	C144.104202,90.523857 144.089966,90.941658 144.057037,91.672424 
z"/>
<path fill="#DAC461" opacity="1.000000" stroke="none" 
	d="
M138.978943,134.413177 
	C138.876343,134.191818 138.886734,133.846115 138.954910,133.247314 
	C139.039124,133.425751 139.065536,133.857285 138.978943,134.413177 
z"/>
<path fill="#271C05" opacity="1.000000" stroke="none" 
	d="
M246.489594,240.867416 
	C246.343475,240.693878 246.399780,240.360474 246.667358,239.874252 
	C246.816422,240.050140 246.754211,240.378845 246.489594,240.867416 
z"/>
<path fill="#DCC664" opacity="1.000000" stroke="none" 
	d="
M226.913696,185.230026 
	C227.158142,185.223770 227.245010,185.430756 227.267532,185.644531 
	C227.275146,185.716751 227.119766,185.806122 226.874878,185.949463 
	C226.717575,185.822830 226.724258,185.634384 226.913696,185.230026 
z"/>
<path fill="#040300" opacity="1.000000" stroke="none" 
	d="
M132.541122,141.915192 
	C132.359940,143.176926 132.151794,144.259766 132.016083,145.671585 
	C132.029449,146.171494 131.970398,146.342438 131.826508,146.971283 
	C131.760529,147.870132 131.779388,148.311081 131.798248,148.752045 
	C131.579742,149.559723 131.361267,150.367416 131.056885,151.926804 
	C130.881180,154.073730 130.791367,155.468964 130.701538,156.864182 
	C130.475433,157.966568 130.249329,159.068954 130.064514,160.595352 
	C128.902893,169.341797 127.699936,177.664230 126.407768,186.603943 
	C132.565903,186.603943 137.978897,186.603943 144.239563,186.603943 
	C143.401993,191.553635 142.672653,195.863739 142.012207,200.590164 
	C141.653519,204.446579 141.225937,207.886673 140.752274,211.697464 
	C124.869492,211.697464 109.014351,211.697464 92.744911,211.697464 
	C94.582390,197.475052 96.365913,183.483276 98.201752,169.498352 
	C102.420830,137.358490 106.642693,105.218918 110.972725,73.093964 
	C111.170189,71.628944 112.435623,70.307877 114.062134,68.905258 
	C119.277588,68.833687 123.634552,68.776627 127.991508,68.719559 
	C128.749878,68.776154 129.508240,68.832756 130.996582,68.887817 
	C133.431870,68.830757 135.137146,68.775238 136.842438,68.719719 
	C137.898727,68.781013 138.955017,68.842308 140.568970,68.933426 
	C141.387466,69.036736 141.652588,69.087982 141.921997,69.116997 
	C138.923676,92.148880 135.925369,115.180763 132.844910,138.886261 
	C132.792374,140.241852 132.821991,140.923798 132.851593,141.605759 
	C132.851593,141.605759 132.514145,141.736313 132.541122,141.915192 
z"/>
<path fill="#FBDF5B" opacity="1.000000" stroke="none" 
	d="
M142.855103,221.034027 
	C142.685425,220.490143 142.515732,219.946274 142.129028,219.207062 
	C140.930908,217.658554 139.949814,216.305374 138.862793,214.806122 
	C145.126770,212.471298 143.071518,206.569016 143.874481,201.358093 
	C144.423569,197.284607 145.025177,193.650848 145.626770,190.017090 
	C146.187302,190.085922 146.747849,190.154755 147.308380,190.223587 
	C146.675797,196.293137 146.072815,202.366013 145.395081,208.430511 
	C145.147018,210.650314 144.009491,213.168396 147.958435,213.759613 
	C147.144058,215.404205 146.077835,216.861176 144.724152,218.859375 
	C143.909500,219.945084 143.382309,220.489548 142.855103,221.034027 
z"/>
<path fill="#ECD557" opacity="1.000000" stroke="none" 
	d="
M142.234512,69.132065 
	C141.652588,69.087982 141.387466,69.036736 140.958801,68.850456 
	C141.708572,65.637169 143.355072,65.070183 145.942184,67.646088 
	C145.372498,75.025612 144.665466,82.054207 143.943146,89.523651 
	C143.660248,90.478180 143.392639,90.991837 143.129669,91.805710 
	C143.102112,92.830276 143.069946,93.554634 143.027496,94.643204 
	C139.167603,92.246346 141.145599,88.479507 141.532761,85.154770 
	C142.116074,80.145287 143.211456,75.196404 143.978470,70.204742 
	C144.020386,69.931961 143.047531,69.503258 142.234512,69.132065 
z"/>
<path fill="#FCDF57" opacity="1.000000" stroke="none" 
	d="
M100.348572,216.023254 
	C98.566002,215.871765 97.233665,215.720398 95.901337,215.569016 
	C95.930603,215.202316 95.959869,214.835602 95.989136,214.468903 
	C106.657288,214.468903 117.325439,214.468903 127.993599,214.468903 
	C128.010620,214.987061 128.027664,215.505234 128.044693,216.023392 
	C118.962730,216.023392 109.880768,216.023392 100.348572,216.023254 
z"/>
<path fill="#ECD557" opacity="1.000000" stroke="none" 
	d="
M127.984558,68.324982 
	C123.634552,68.776627 119.277588,68.833687 114.463234,68.806557 
	C114.792038,67.502258 115.447495,65.364372 116.388405,65.230324 
	C119.483368,64.789444 122.701492,64.885864 125.826942,65.211388 
	C126.629532,65.294975 127.265244,66.980705 127.984558,68.324982 
z"/>
<path fill="#ECD557" opacity="1.000000" stroke="none" 
	d="
M136.865143,68.292068 
	C135.137146,68.775238 133.431870,68.830757 131.369385,68.802185 
	C131.770004,67.503098 132.527817,66.288109 133.285629,65.073128 
	C134.486374,66.003555 135.687119,66.933983 136.865143,68.292068 
z"/>
<path fill="#FCDF57" opacity="1.000000" stroke="none" 
	d="
M92.979347,215.027985 
	C87.505280,214.736679 87.427872,214.638428 89.852821,209.882019 
	C91.011017,211.553909 91.961128,212.925415 92.956055,214.648956 
	C93.000877,215.001007 92.979347,215.027985 92.979347,215.027985 
z"/>
<path fill="#FCDF57" opacity="1.000000" stroke="none" 
	d="
M93.014267,214.990143 
	C93.027657,214.979263 93.335327,215.204300 93.335327,215.204300 
	C93.335327,215.204300 93.077629,215.203674 93.028488,215.115829 
	C92.979347,215.027985 93.000877,215.001007 93.014267,214.990143 
z"/>
<path fill="#030200" opacity="1.000000" stroke="none" 
	d="
M154.793701,146.981522 
	C155.537384,141.964783 156.281067,136.948059 157.045456,131.505234 
	C157.066177,131.079147 157.087234,131.079224 157.555069,131.046204 
	C170.365799,130.912796 182.708694,130.812408 195.051590,130.712006 
	C197.389297,130.759842 199.726990,130.807663 202.873871,130.889542 
	C204.460800,130.936249 205.238571,130.948929 206.016327,130.961594 
	C206.016327,130.961594 206.007385,131.001816 206.025467,130.991241 
	C206.303345,132.429977 206.563141,133.879288 206.964783,135.668121 
	C207.128067,136.769852 207.149521,137.532074 207.294769,138.658157 
	C208.961609,152.760101 210.504654,166.498169 212.200104,180.637375 
	C212.357559,181.484665 212.362579,181.930817 212.452606,183.077179 
	C213.147064,188.512543 213.756485,193.247711 214.365921,197.982880 
	C214.318878,198.424835 214.271835,198.866806 214.179947,200.055893 
	C214.629562,203.895416 215.433380,206.976807 215.543610,210.082840 
	C215.696411,214.387924 217.712341,215.539474 221.802002,214.588608 
	C225.535568,204.419983 229.284317,194.209976 233.033051,183.999985 
	C233.033066,183.999985 233.253113,183.812592 233.470566,183.426346 
	C234.123291,181.693466 234.558563,180.346848 234.993835,179.000214 
	C236.249161,175.907257 237.504471,172.814285 238.775879,169.356644 
	C240.557281,163.931152 242.322601,158.870346 244.027695,153.403381 
	C243.967484,152.997208 244.018829,152.964279 244.119659,152.827301 
	C244.286102,152.558609 244.355469,152.428375 244.409668,152.292114 
	C244.413635,152.282181 244.307724,152.228546 244.252899,152.195221 
	C244.185547,152.317734 244.118210,152.440262 244.050873,152.562775 
	C246.733841,146.554871 249.623062,140.627243 252.007080,134.502960 
	C253.092819,131.713791 254.495422,130.832382 257.398682,130.861221 
	C271.969482,131.006027 286.542328,130.944336 301.588318,130.985046 
	C301.517090,136.071747 300.972046,141.128586 300.471497,146.590454 
	C300.382507,147.438660 300.248993,147.881882 300.034485,149.060333 
	C299.203369,156.190338 298.453217,162.585114 297.703064,168.979904 
	C297.508759,169.734695 297.314453,170.489502 297.027466,172.019485 
	C296.460999,176.867355 295.987213,180.940033 295.513428,185.012726 
	C295.338074,186.083923 295.162720,187.155136 294.871704,188.989777 
	C293.263733,201.515884 291.771454,213.278549 290.279175,225.041229 
	C290.183289,225.478729 290.087433,225.916245 289.907104,227.000595 
	C289.730347,228.769302 289.638092,229.891144 289.545837,231.013000 
	C289.416931,231.450256 289.288055,231.887527 289.060791,233.059998 
	C287.800903,243.197891 286.639404,252.600571 285.477905,262.003235 
	C285.358154,262.443329 285.238403,262.883453 285.033295,264.043274 
	C284.298370,267.913544 283.648804,271.064148 282.561829,274.164276 
	C280.073242,274.170197 278.022003,274.226593 275.514282,274.185181 
	C268.354492,274.136841 261.651215,274.186340 254.947906,274.235809 
	C254.401443,273.438873 253.307877,272.580658 253.389297,271.854126 
	C254.989609,257.575775 256.722595,243.312225 258.452820,229.048615 
	C258.508453,228.590042 258.820953,228.162613 258.967651,227.358582 
	C260.875214,215.361908 262.828857,203.727325 264.851868,191.679810 
	C263.101959,191.101456 261.469238,190.561844 259.442108,189.891861 
	C253.827576,204.706619 248.349548,219.300110 242.765701,233.852997 
	C237.887329,246.567169 232.912460,259.244629 227.894791,271.904419 
	C227.554840,272.762085 226.496140,273.334900 224.930298,274.056396 
	C215.068481,274.117645 206.048035,274.162659 196.615448,274.136261 
	C195.482895,272.846771 194.307220,271.695770 194.116302,270.399750 
	C192.921677,262.289795 191.946823,254.147491 190.899200,246.015900 
	C190.490860,241.871796 190.082504,237.727676 189.584595,232.976990 
	C189.364609,232.037979 189.234192,231.705536 189.196442,231.213104 
	C189.189148,230.719391 189.089203,230.385666 189.043869,229.789032 
	C189.035492,229.358521 188.972504,229.190948 188.909515,229.023361 
	C187.975708,220.606689 187.041901,212.190033 186.044769,203.066330 
	C185.487259,195.318329 184.993042,188.277359 184.463074,180.726868 
	C173.483109,180.726868 162.254044,180.726868 150.787247,180.726868 
	C152.067566,169.815750 153.288132,159.413879 154.652161,148.691650 
	C154.794968,147.908035 154.794327,147.444778 154.793701,146.981522 
z"/>
<path fill="#FDDF52" opacity="1.000000" stroke="none" 
	d="
M161.386810,215.160538 
	C164.233032,214.646942 167.448090,214.146194 170.678406,214.011658 
	C177.161041,213.741638 178.844727,212.113388 178.965179,205.860901 
	C179.075562,200.131378 179.338943,194.404800 179.253052,188.086487 
	C178.959610,187.310135 178.948074,187.124222 178.936539,186.938324 
	C178.934677,186.527206 178.932816,186.116074 178.940979,185.049957 
	C179.888763,184.148132 180.826538,183.901306 181.764313,183.654465 
	C182.180710,185.382797 182.798508,187.090866 182.974670,188.843353 
	C183.448547,193.557632 183.733826,198.290848 184.093979,203.016556 
	C182.738129,208.754837 181.382263,214.493103 180.011932,220.617706 
	C176.764908,215.428299 171.450134,215.751053 166.094070,215.988663 
	C164.662659,216.052170 163.207047,215.570450 161.386810,215.160538 
z"/>
<path fill="#E7CE65" opacity="1.000000" stroke="none" 
	d="
M184.535522,203.045746 
	C183.733826,198.290848 183.448547,193.557632 182.974670,188.843353 
	C182.798508,187.090866 182.180710,185.382797 181.764313,183.654465 
	C180.826538,183.901306 179.888763,184.148132 178.897339,184.743240 
	C178.484085,185.079300 178.124481,185.067062 177.185776,185.020569 
	C176.403015,184.970871 176.199341,184.955429 176.131134,184.623993 
	C175.567673,183.542862 174.892471,182.142227 174.165970,182.115082 
	C169.195404,181.929413 164.209244,181.918030 159.239929,182.128845 
	C158.121353,182.176315 157.049454,183.323593 155.564636,183.969055 
	C154.128372,183.972900 153.083557,183.972275 152.038727,183.971664 
	C150.263458,182.980560 148.488190,181.989456 146.352509,180.975723 
	C146.144150,179.815231 146.296188,178.677353 147.062042,177.240662 
	C148.445145,176.058899 149.731186,175.263107 149.897217,174.278458 
	C150.768951,169.108292 151.219482,163.867050 152.094254,158.697510 
	C152.647751,155.426483 153.687195,152.237686 154.508698,149.012009 
	C153.288132,159.413879 152.067566,169.815750 150.787247,180.726868 
	C162.254044,180.726868 173.483109,180.726868 184.463074,180.726868 
	C184.993042,188.277359 185.487259,195.318329 185.920898,202.745331 
	C185.565903,203.112549 185.271500,203.093750 184.535522,203.045746 
z"/>
<path fill="#FCDF57" opacity="1.000000" stroke="none" 
	d="
M187.945648,248.941376 
	C188.480759,248.402100 189.015854,247.862839 189.779144,247.607300 
	C190.733383,255.811081 191.415970,263.735474 192.206909,271.649048 
	C192.521957,274.801056 194.256470,276.102692 197.594803,276.034302 
	C206.746399,275.846741 215.904434,275.972443 225.059921,275.974152 
	C223.389450,276.659790 221.734222,277.890442 220.045929,277.937592 
	C212.391525,278.151550 204.706284,277.682617 197.074860,278.152740 
	C191.852142,278.474518 190.417618,276.001129 189.997772,271.592255 
	C189.432205,265.653381 188.648300,259.735260 187.959000,252.983231 
	C187.955154,251.085922 187.950394,250.013641 187.945648,248.941376 
z"/>
<path fill="#FCDF57" opacity="1.000000" stroke="none" 
	d="
M253.973785,221.010284 
	C253.973801,221.010284 253.654251,221.275909 253.445984,221.289978 
	C250.165207,220.049393 250.803757,217.788330 251.748871,215.538269 
	C254.194336,209.716293 256.679169,203.910522 259.206696,198.123810 
	C259.489655,197.475922 260.147980,196.992020 261.804474,196.760788 
	C260.888580,202.566559 259.972717,208.372314 259.024658,214.591797 
	C257.772919,214.771057 256.553314,214.536621 254.996048,214.237274 
	C254.996048,215.662750 254.996048,216.943985 254.770752,218.793030 
	C254.354904,219.910660 254.164352,220.460464 253.973785,221.010284 
z"/>
<path fill="#E7CE65" opacity="1.000000" stroke="none" 
	d="
M225.171661,275.866180 
	C215.904434,275.972443 206.746399,275.846741 197.594803,276.034302 
	C194.256470,276.102692 192.521957,274.801056 192.206909,271.649048 
	C191.415970,263.735474 190.733383,255.811081 190.005203,247.431259 
	C190.138748,246.705780 190.318222,246.473938 190.720337,246.145935 
	C191.946823,254.147491 192.921677,262.289795 194.116302,270.399750 
	C194.307220,271.695770 195.482895,272.846771 196.967682,274.344543 
	C206.822235,274.744232 215.912384,274.864197 225.002548,274.984131 
	C225.320618,275.177277 225.414230,275.435303 225.171661,275.866180 
z"/>
<path fill="#DAC461" opacity="1.000000" stroke="none" 
	d="
M225.010422,274.791992 
	C215.912384,274.864197 206.822235,274.744232 197.379837,274.415955 
	C206.048035,274.162659 215.068481,274.117645 224.554443,274.143921 
	C225.019958,274.215210 225.018295,274.599823 225.010422,274.791992 
z"/>
<path fill="#E7CE65" opacity="1.000000" stroke="none" 
	d="
M187.712311,248.935822 
	C187.950394,250.013641 187.955154,251.085922 187.940277,252.557465 
	C187.773422,251.614594 187.626205,250.272430 187.712311,248.935822 
z"/>
<path fill="#E7CE65" opacity="1.000000" stroke="none" 
	d="
M189.103790,231.373093 
	C189.234192,231.705536 189.364609,232.037979 189.411957,232.631821 
	C189.050705,231.773926 188.772537,230.654617 188.701950,229.279343 
	C188.972504,229.190948 189.035492,229.358521 189.067719,230.119629 
	C189.059250,230.933136 189.081528,231.153122 189.103790,231.373093 
z"/>
<path fill="#FCDF57" opacity="1.000000" stroke="none" 
	d="
M258.029358,217.772675 
	C257.683289,217.800171 257.610443,217.527298 257.937622,217.112732 
	C258.064331,217.187469 258.052612,217.354584 258.029358,217.772675 
z"/>
<path fill="#040300" opacity="1.000000" stroke="none" 
	d="
M142.541473,240.981964 
	C142.653198,240.540802 142.764938,240.099655 142.957184,238.999130 
	C142.999649,236.559555 142.961624,234.779327 143.074188,232.663055 
	C143.823181,228.551620 144.421600,224.776215 145.020020,221.000824 
	C146.057510,219.984299 147.073090,218.112671 148.135895,218.085464 
	C157.266815,217.851685 166.406250,217.951233 176.245148,217.951233 
	C173.822235,236.795654 171.456955,255.191971 169.030563,274.063599 
	C159.221588,274.063599 149.587006,274.063599 139.489304,274.102783 
	C139.026169,274.141937 138.911133,273.914886 138.734711,273.792358 
	C138.558289,273.669800 138.233963,273.609924 138.233963,273.609924 
	C138.422104,272.702026 138.610245,271.794159 138.903168,270.035950 
	C139.454468,265.123108 139.900986,261.060547 140.347504,256.997986 
	C140.495834,256.556061 140.644150,256.114136 140.891891,254.966461 
	C141.169006,252.506317 141.346725,250.751923 141.659790,248.675476 
	C141.781326,247.891602 141.767532,247.429779 141.888260,246.610474 
	C142.195679,244.495987 142.368576,242.738968 142.541473,240.981964 
z"/>
<path fill="#E8CF64" opacity="1.000000" stroke="none" 
	d="
M144.991760,220.661255 
	C144.421600,224.776215 143.823181,228.551620 142.873566,232.669586 
	C142.522385,233.012177 142.121262,233.027451 142.121262,233.027451 
	C141.976013,230.083084 141.830750,227.138733 141.334732,224.058029 
	C141.441742,223.066544 141.899521,222.211395 142.606201,221.195129 
	C143.382309,220.489548 143.909500,219.945084 144.619019,219.184097 
	C144.855392,219.418945 144.909454,219.870300 144.991760,220.661255 
z"/>
<path fill="#E1CA64" opacity="1.000000" stroke="none" 
	d="
M290.609131,224.887634 
	C291.771454,213.278549 293.263733,201.515884 294.921722,189.397217 
	C295.367920,189.804489 295.980499,190.615189 295.879242,191.323898 
	C294.286774,202.468353 292.602356,213.599686 290.609131,224.887634 
z"/>
<path fill="#E1CA64" opacity="1.000000" stroke="none" 
	d="
M285.786438,261.841614 
	C286.639404,252.600571 287.800903,243.197891 289.106171,233.404144 
	C289.156036,236.911911 289.361267,240.846786 288.897552,244.701172 
	C288.213104,250.390823 287.052673,256.023224 285.786438,261.841614 
z"/>
<path fill="#F3DF74" opacity="1.000000" stroke="none" 
	d="
M275.970795,274.282959 
	C278.022003,274.226593 280.073242,274.170197 282.541016,274.374512 
	C282.957611,274.635162 282.971619,275.057617 282.971619,275.057617 
	C273.872681,275.220520 264.773743,275.383423 255.805359,275.293091 
	C262.614227,274.787567 269.292511,274.535278 275.970795,274.282959 
z"/>
<path fill="#E1CA64" opacity="1.000000" stroke="none" 
	d="
M295.760559,185.025879 
	C295.987213,180.940033 296.460999,176.867355 297.071411,172.412476 
	C297.236877,176.113953 297.265717,180.197647 297.143738,184.608856 
	C296.665070,184.975937 296.336670,185.010162 295.760559,185.025879 
z"/>
<path fill="#E1CA64" opacity="1.000000" stroke="none" 
	d="
M275.514282,274.185181 
	C269.292511,274.535278 262.614227,274.787567 255.467407,275.054932 
	C254.998871,275.070038 254.955917,274.653961 254.951904,274.444885 
	C261.651215,274.186340 268.354492,274.136841 275.514282,274.185181 
z"/>
<path fill="#E1CA64" opacity="1.000000" stroke="none" 
	d="
M283.343201,274.956909 
	C282.971619,275.057617 282.957611,274.635162 282.978424,274.424927 
	C283.648804,271.064148 284.298370,267.913544 285.084351,264.385132 
	C285.921722,267.790588 287.641205,271.715240 283.343201,274.956909 
z"/>
<path fill="#E6CE62" opacity="1.000000" stroke="none" 
	d="
M253.931396,221.426392 
	C254.164352,220.460464 254.354904,219.910660 254.768784,219.164139 
	C255.142944,221.449249 255.293793,223.931091 255.209961,226.672272 
	C254.822327,226.669662 254.626984,226.444504 254.197861,226.137390 
	C253.967331,224.626587 253.928162,223.234528 253.931396,221.426392 
z"/>
<path fill="#E1CA64" opacity="1.000000" stroke="none" 
	d="
M289.813293,230.885895 
	C289.638092,229.891144 289.730347,228.769302 289.958618,227.335480 
	C290.089996,228.268616 290.085388,229.513702 289.813293,230.885895 
z"/>
<path fill="#E8D165" opacity="1.000000" stroke="none" 
	d="
M244.039047,152.620667 
	C244.118210,152.440262 244.185547,152.317734 244.252899,152.195221 
	C244.307724,152.228546 244.413635,152.282181 244.409668,152.292114 
	C244.355469,152.428375 244.286102,152.558609 244.100723,152.803436 
	C243.980972,152.916534 244.027237,152.678543 244.039047,152.620667 
z"/>
<path fill="#040300" opacity="1.000000" stroke="none" 
	d="
M178.480026,186.857468 
	C178.948074,187.124222 178.959610,187.310135 179.037537,187.768051 
	C177.950302,195.873306 176.796722,203.706558 175.607498,211.781830 
	C166.012070,211.781830 156.625229,211.781830 146.673401,211.781830 
	C147.666122,204.084976 148.496719,196.559677 149.762695,189.108368 
	C149.934357,188.097992 152.273468,186.787323 153.634186,186.757278 
	C161.759857,186.577881 169.892929,186.733444 178.480026,186.857468 
z"/>
<path fill="#FDDF52" opacity="1.000000" stroke="none" 
	d="
M155.956070,183.964600 
	C157.049454,183.323593 158.121353,182.176315 159.239929,182.128845 
	C164.209244,181.918030 169.195404,181.929413 174.165970,182.115082 
	C174.892471,182.142227 175.567673,183.542862 175.665436,184.640778 
	C170.348587,185.001129 165.632889,185.028702 160.917191,185.056259 
	C160.507858,185.062622 160.098541,185.069000 159.038559,185.040588 
	C157.577286,184.658752 156.766678,184.311676 155.956070,183.964600 
z"/>
<path fill="#FBDF5B" opacity="1.000000" stroke="none" 
	d="
M133.899811,165.590485 
	C133.594116,167.123001 133.321884,168.236115 133.078857,169.710281 
	C132.690948,171.973328 132.273804,173.875336 131.856674,175.777344 
	C131.567368,175.769043 131.278046,175.760742 130.988739,175.752441 
	C130.988739,171.140442 130.988739,166.528442 131.007446,161.463821 
	C131.773407,161.000458 132.520660,160.989716 133.642303,160.972626 
	C133.988892,162.367889 133.961090,163.769485 133.899811,165.590485 
z"/>
<path fill="#F3DF74" opacity="1.000000" stroke="none" 
	d="
M161.272568,185.270691 
	C165.632889,185.028702 170.348587,185.001129 175.529968,184.956787 
	C176.199341,184.955429 176.403015,184.970871 176.914673,185.011276 
	C172.024429,185.185852 166.826187,185.335480 161.272568,185.270691 
z"/>
<path fill="#F3DF74" opacity="1.000000" stroke="none" 
	d="
M155.564636,183.969070 
	C156.766678,184.311676 157.577286,184.658752 158.731598,185.032959 
	C156.678040,185.294006 154.280792,185.527893 151.463684,185.715485 
	C151.240097,185.210358 151.436417,184.751541 151.835724,184.132187 
	C153.083557,183.972275 154.128372,183.972900 155.564636,183.969070 
z"/>
<path fill="#DAC461" opacity="1.000000" stroke="none" 
	d="
M132.919678,141.190491 
	C132.821991,140.923798 132.792374,140.241852 132.890350,139.330261 
	C133.007889,139.658844 132.997818,140.217041 132.919678,141.190491 
z"/>
<path fill="#ECD557" opacity="1.000000" stroke="none" 
	d="
M141.978699,97.992798 
	C142.118393,98.107162 142.056244,98.555099 142.031067,98.779846 
	C141.950256,98.629204 141.894623,98.253815 141.978699,97.992798 
z"/>
<path fill="#DCC664" opacity="1.000000" stroke="none" 
	d="
M194.876282,130.373016 
	C182.708694,130.812408 170.365799,130.912796 157.564194,131.043854 
	C157.578568,130.478851 158.046585,129.367737 158.525452,129.363037 
	C170.175690,129.249008 181.827103,129.244705 193.478195,129.269196 
	C193.886322,129.270050 194.293396,129.767853 194.876282,130.373016 
z"/>
<path fill="#DCC664" opacity="1.000000" stroke="none" 
	d="
M205.954300,130.665100 
	C205.238571,130.948929 204.460800,130.936249 203.307007,130.820190 
	C203.918060,130.600723 204.905167,130.484665 205.954300,130.665100 
z"/>
<path fill="#E3CC64" opacity="1.000000" stroke="none" 
	d="
M140.060516,257.170380 
	C139.900986,261.060547 139.454468,265.123108 138.865067,269.571014 
	C139.072632,265.751831 139.423080,261.547302 140.060516,257.170380 
z"/>
<path fill="#E3CC64" opacity="1.000000" stroke="none" 
	d="
M141.524445,248.997528 
	C141.346725,250.751923 141.169006,252.506317 140.845856,254.613693 
	C140.485062,253.243469 140.269730,251.520248 140.308411,249.401917 
	C140.562439,249.006775 141.043365,248.994858 141.043365,248.994858 
	C141.043365,248.994858 141.524445,248.997528 141.524445,248.997528 
z"/>
<path fill="#E3CC64" opacity="1.000000" stroke="none" 
	d="
M142.238190,241.135330 
	C142.368576,242.738968 142.195679,244.495987 141.729034,246.472061 
	C141.243698,246.480759 141.092133,246.244675 140.980576,245.982910 
	C141.298691,244.418167 141.616791,242.853439 142.238190,241.135330 
z"/>
<path fill="#E3CC64" opacity="1.000000" stroke="none" 
	d="
M142.091721,233.415314 
	C142.121262,233.027451 142.522385,233.012177 142.722992,233.005646 
	C142.961624,234.779327 142.999649,236.559555 142.903046,238.657700 
	C142.533020,237.251480 142.297592,235.527328 142.091721,233.415314 
z"/>
<path fill="#E8CF64" opacity="1.000000" stroke="none" 
	d="
M140.766068,246.230682 
	C141.092133,246.244675 141.243698,246.480759 141.594513,246.829559 
	C141.767532,247.429779 141.781326,247.891602 141.659790,248.675476 
	C141.524445,248.997528 141.043365,248.994858 141.043365,248.994858 
	C141.043365,248.994858 140.562439,249.006775 140.323639,249.014313 
	C140.240417,248.174042 140.395981,247.326248 140.766068,246.230682 
z"/>
<path fill="#E3CC64" opacity="1.000000" stroke="none" 
	d="
M138.250977,273.683716 
	C138.233963,273.609924 138.558289,273.669800 138.611435,273.823914 
	C138.664581,273.978058 138.267975,273.757538 138.250977,273.683716 
z"/>
<path fill="#DCC664" opacity="1.000000" stroke="none" 
	d="
M232.744507,184.173706 
	C229.284317,194.209976 225.535568,204.419983 221.802002,214.588608 
	C217.712341,215.539474 215.696411,214.387924 215.543610,210.082840 
	C215.433380,206.976807 214.629562,203.895416 214.190765,200.390167 
	C215.147827,202.505096 216.141235,205.005035 216.917221,207.570724 
	C217.406296,209.187836 217.569992,210.903336 218.748688,212.723495 
	C223.555252,206.126144 227.030914,199.197296 227.109772,190.478134 
	C228.909042,188.145538 230.682495,186.246475 232.744507,184.173706 
z"/>
<path fill="#DCC664" opacity="1.000000" stroke="none" 
	d="
M214.547455,197.627655 
	C213.756485,193.247711 213.147064,188.512543 212.614960,183.374207 
	C213.371185,187.738159 214.050079,192.505295 214.547455,197.627655 
z"/>
<path fill="#E1CA64" opacity="1.000000" stroke="none" 
	d="
M297.981873,168.800034 
	C298.453217,162.585114 299.203369,156.190338 300.086731,149.408051 
	C299.566864,155.553741 298.913757,162.086960 297.981873,168.800034 
z"/>
<path fill="#DCC664" opacity="1.000000" stroke="none" 
	d="
M234.732559,179.244507 
	C234.558563,180.346848 234.123291,181.693466 233.427353,183.288452 
	C233.601562,182.187454 234.036423,180.838120 234.732559,179.244507 
z"/>
<path fill="#FCDF57" opacity="1.000000" stroke="none" 
	d="
M154.652145,148.691650 
	C153.687195,152.237686 152.647751,155.426483 152.094254,158.697510 
	C151.219482,163.867050 150.768951,169.108292 149.897217,174.278458 
	C149.731186,175.263107 148.445145,176.058899 147.257935,176.955505 
	C146.895218,176.232925 146.950424,175.496658 147.223083,174.145630 
	C147.587997,172.700851 147.735474,171.870865 147.882950,171.040863 
	C149.086914,162.536789 150.290894,154.032715 151.734039,145.189728 
	C152.768494,145.420990 153.563782,145.991180 154.576385,146.771454 
	C154.794327,147.444778 154.794968,147.908035 154.652145,148.691650 
z"/>
<path fill="#FCDF57" opacity="1.000000" stroke="none" 
	d="
M152.011505,136.434265 
	C156.388153,137.514114 155.268250,139.620575 152.330322,141.999695 
	C151.999771,140.363449 151.999512,138.615494 152.011505,136.434265 
z"/>
<path fill="#E7CE65" opacity="1.000000" stroke="none" 
	d="
M147.680130,171.284348 
	C147.735474,171.870865 147.587997,172.700851 147.230133,173.776077 
	C147.172256,173.190140 147.324783,172.358994 147.680130,171.284348 
z"/>
<path fill="#DCC664" opacity="1.000000" stroke="none" 
	d="
M151.413055,134.484314 
	C151.571762,134.389374 151.729523,134.508591 151.899567,134.838562 
	C151.769470,134.903214 151.602890,134.786255 151.413055,134.484314 
z"/>
<path fill="#ECD45E" opacity="1.000000" stroke="none" 
	d="
M239.107758,161.014038 
	C239.551804,159.049026 240.019608,157.382614 240.487427,155.716202 
	C240.950867,155.829285 241.414307,155.942383 241.877731,156.055466 
	C241.204315,157.924606 240.534439,159.795059 239.841934,161.657104 
	C239.819092,161.718475 239.535004,161.752518 239.428833,161.695251 
	C239.298782,161.625061 239.227966,161.445114 239.107758,161.014038 
z"/>
<path fill="#DAC461" opacity="1.000000" stroke="none" 
	d="
M130.897919,156.644302 
	C130.791367,155.468964 130.881180,154.073730 131.096619,152.347382 
	C131.179596,153.485657 131.136948,154.955032 130.897919,156.644302 
z"/>
<path fill="#DAC461" opacity="1.000000" stroke="none" 
	d="
M131.886993,148.552094 
	C131.779388,148.311081 131.760529,147.870132 131.868317,147.239319 
	C131.988571,147.483704 131.982162,147.917923 131.886993,148.552094 
z"/>
<path fill="#E8D165" opacity="1.000000" stroke="none" 
	d="
M133.486954,144.513031 
	C133.474014,144.483261 133.499893,144.542816 133.486954,144.513031 
z"/>
<path fill="#E6CE62" opacity="1.000000" stroke="none" 
	d="
M189.196442,231.213104 
	C189.081528,231.153122 189.059250,230.933136 189.013123,230.382538 
	C189.089203,230.385666 189.189148,230.719391 189.196442,231.213104 
z"/>
</svg>