<svg width="49" height="51" viewBox="0 0 49 51" fill="none" xmlns="http://www.w3.org/2000/svg">
<path d="M0 5C0 2.23858 2.23858 0 5 0H43.7757C46.5371 0 48.7757 2.23858 48.7757 5V46C48.7757 48.7614 46.5371 51 43.7757 51H4.99999C2.23857 51 0 48.7614 0 46V5Z" fill="#1E255E"/>
<path d="M18.6422 34.4475C18.6422 28.1943 18.6422 21.9687 18.6422 15.7246C22.855 15.7246 27.0501 15.7246 31.2717 15.7246C31.2717 16.4971 31.2717 17.2879 31.2717 18.088C30.9463 18.1891 30.6208 18.2995 30.2515 18.419C30.2515 17.8765 30.2515 17.3707 30.2515 16.8373C26.7247 16.8373 23.2244 16.8373 19.7064 16.8373C19.7064 19.3938 19.7064 21.9411 19.7064 24.5343C21.6501 24.5343 23.5937 24.5343 25.5726 24.5343C25.3263 26.5666 25.7221 28.3966 26.8215 30.0427C27.912 31.6888 29.4159 32.7187 31.2893 33.1969C31.2893 33.6107 31.2893 34.0245 31.2893 34.4567C27.0765 34.4475 22.8726 34.4475 18.6422 34.4475ZM19.6976 26.723C21.2895 26.723 22.8462 26.723 24.4029 26.723C24.4029 26.3551 24.4029 26.0057 24.4029 25.6562C22.8198 25.6562 21.2631 25.6562 19.6976 25.6562C19.6976 26.0149 19.6976 26.3551 19.6976 26.723ZM19.7064 27.8633C19.7064 28.2311 19.7064 28.5805 19.7064 28.93C21.2895 28.93 22.855 28.93 24.4117 28.93C24.4117 28.5621 24.4117 28.2127 24.4117 27.8633C22.8286 27.8633 21.2719 27.8633 19.7064 27.8633ZM24.4205 30.0795C22.8286 30.0795 21.2631 30.0795 19.7152 30.0795C19.7152 30.4565 19.7152 30.7968 19.7152 31.1462C21.2983 31.1462 22.855 31.1462 24.4205 31.1462C24.4205 30.7876 24.4205 30.4473 24.4205 30.0795ZM19.7064 32.2773C19.7064 32.6451 19.7064 32.9946 19.7064 33.344C21.2895 33.344 22.855 33.344 24.4117 33.344C24.4117 32.9762 24.4117 32.6267 24.4117 32.2773C22.8286 32.2773 21.2719 32.2773 19.7064 32.2773Z" fill="white"/>
<path d="M17.5961 35.5602C22.5212 35.5602 27.4199 35.5602 32.3451 35.5602C32.3451 34.8246 32.3451 34.1073 32.3451 33.3716C32.7057 33.3716 33.0311 33.3716 33.3829 33.3716C33.3829 34.4475 33.3829 35.5327 33.3829 36.6454C27.7893 36.6454 22.1782 36.6454 16.5407 36.6454C16.5407 28.9484 16.5407 21.2422 16.5407 13.5176C22.1518 13.5176 27.7629 13.5176 33.3917 13.5176C33.3917 14.9797 33.3917 16.4327 33.3917 17.904C33.0574 17.904 32.732 17.904 32.3714 17.904C32.3714 16.8281 32.3714 15.743 32.3714 14.6303C27.4287 14.6303 22.5212 14.6303 17.5961 14.6303C17.5961 21.5916 17.5961 28.5621 17.5961 35.5602Z" fill="white"/>
<path d="M38.5105 28.5896C38.0795 27.4493 37.2 26.9619 36.1359 26.7412C35.5818 26.6217 35.0277 26.4562 34.4121 26.2998C34.5088 26.1895 34.5704 26.0975 34.6407 26.0332C35.2036 25.4814 35.5114 24.8009 35.5114 23.9825C35.5114 23.4583 35.5378 22.9157 35.4587 22.4008C35.2476 21.0673 34.1658 20.1294 32.8994 20.1202C31.6681 20.111 30.5247 21.049 30.3313 22.3456C30.2257 23.0261 30.2521 23.7434 30.3049 24.4331C30.3488 25.0768 30.683 25.6009 31.1404 26.024C31.2019 26.0791 31.2987 26.1067 31.3778 26.1435C31.3515 26.1895 31.3339 26.2355 31.3075 26.2814C31.2107 26.3182 31.114 26.355 31.0173 26.3734C30.4544 26.5205 29.8915 26.6769 29.3198 26.8056C28.3524 27.0263 27.6488 27.5873 27.253 28.5528C26.1361 26.5573 26.1977 23.0905 28.5723 20.7731C30.8853 18.5201 34.4648 18.4005 36.9274 20.534C39.4515 22.7502 39.733 26.2722 38.5105 28.5896Z" fill="white"/>
<path d="M34.517 23.449C34.4642 23.8352 34.473 24.249 34.3323 24.5893C34.1916 24.9111 33.9014 25.187 33.6375 25.4261C33.488 25.564 33.4001 25.6652 33.4089 25.8675C33.4264 26.2077 33.4264 26.5572 33.4089 26.8974C33.4001 27.0997 33.4528 27.1917 33.6639 27.2469C34.5434 27.4584 35.4141 27.6975 36.2848 27.9274C37.2258 28.1757 37.6832 28.8194 37.6304 29.8309C37.6216 29.9413 37.5688 30.07 37.4985 30.162C35.0887 32.9484 30.6912 32.9576 28.2814 30.162C28.1847 30.0425 28.1407 29.8401 28.1407 29.6654C28.1319 28.7642 28.5981 28.1481 29.4424 27.9274C30.3043 27.7067 31.1662 27.4768 32.0281 27.2653C32.2743 27.2101 32.3974 27.1089 32.3535 26.8331C32.3359 26.7227 32.3447 26.6032 32.3535 26.4928C32.3886 25.9595 32.3886 25.4813 31.8258 25.1686C31.5971 25.0399 31.4036 24.6628 31.3684 24.3778C31.3069 23.7616 31.2805 23.1087 31.3772 22.5018C31.518 21.6649 32.2919 21.1408 33.0571 21.2419C33.8486 21.3431 34.4379 22.0328 34.4554 22.8972C34.4554 23.0811 34.4554 23.265 34.4554 23.449C34.4818 23.449 34.4994 23.449 34.517 23.449Z" fill="white"/>
<path d="M33.4091 12.3776C27.7716 12.3776 22.1604 12.3776 16.5317 12.3776C16.5317 11.7431 16.4877 11.1269 16.5405 10.5108C16.6197 9.6556 17.3144 9.08545 18.2027 9.08545C22.1692 9.08545 26.1357 9.08545 30.1022 9.08545C30.6651 9.08545 31.2191 9.08545 31.782 9.08545C32.7231 9.09465 33.3915 9.79354 33.4091 10.7867C33.4179 11.3109 33.4091 11.835 33.4091 12.3776ZM26.0038 10.2165C24.5878 10.2165 23.1982 10.2165 21.8262 10.2165C21.8262 10.5936 21.8262 10.9338 21.8262 11.2833C23.2334 11.2833 24.6142 11.2833 26.0038 11.2833C26.0038 10.9154 26.0038 10.5752 26.0038 10.2165ZM27.1031 10.1982C27.1031 10.5844 27.1031 10.9338 27.1031 11.2741C27.4549 11.2741 27.7803 11.2741 28.1146 11.2741C28.1146 10.9062 28.1146 10.5568 28.1146 10.1982C27.7628 10.1982 27.4373 10.1982 27.1031 10.1982Z" fill="white"/>
<path d="M16.514 37.7949C22.1603 37.7949 27.7626 37.7949 33.3825 37.7949C33.3825 38.4478 33.4353 39.0916 33.365 39.7261C33.277 40.5353 32.5998 41.0963 31.8171 41.0963C27.2437 41.1055 22.6704 41.1055 18.0883 41.0963C17.2 41.0963 16.5228 40.379 16.5052 39.4594C16.5052 38.9168 16.514 38.3743 16.514 37.7949ZM22.8639 39.9652C24.2799 39.9652 25.6607 39.9652 27.0414 39.9652C27.0414 39.5881 27.0414 39.2479 27.0414 38.8984C25.6343 38.8984 24.2535 38.8984 22.8639 38.8984C22.8639 39.2663 22.8639 39.6065 22.8639 39.9652ZM18.6423 39.9744C19.0029 39.9744 19.3283 39.9744 19.6625 39.9744C19.6625 39.6065 19.6625 39.2663 19.6625 38.9076C19.3108 38.9076 18.9765 38.9076 18.6423 38.9076C18.6423 39.2755 18.6423 39.6157 18.6423 39.9744ZM31.2894 38.9076C30.9288 38.9076 30.5946 38.9076 30.2604 38.9076C30.2604 39.2755 30.2604 39.6249 30.2604 39.9652C30.621 39.9652 30.9464 39.9652 31.2894 39.9652C31.2894 39.6065 31.2894 39.2755 31.2894 38.9076Z" fill="white"/>
<path d="M20.7621 17.9316C23.5765 17.9316 26.3644 17.9316 29.1876 17.9316C29.1876 18.2443 29.1964 18.5386 29.1788 18.8328C29.1788 18.9064 29.1084 18.9984 29.0469 19.0443C27.1208 20.5341 26.6723 21.1226 25.7928 23.4216C24.1305 23.4216 22.4595 23.4216 20.7621 23.4216C20.7621 21.6008 20.7621 19.78 20.7621 17.9316Z" fill="white"/>
<path d="M13.2336 30.0427C13.1456 29.6748 13.0665 29.3162 12.9609 28.9667C12.8378 28.5437 12.3805 28.369 12.0199 28.5897C11.7297 28.7736 11.4394 28.9576 11.1668 29.1231C10.6127 28.5437 10.0674 27.9736 9.49576 27.3667C9.65407 27.0908 9.83876 26.7689 10.0235 26.4471C10.2081 26.116 10.0059 25.5918 9.64527 25.4999C9.30227 25.4079 8.96807 25.316 8.60748 25.2148C8.60748 24.4056 8.60748 23.5963 8.60748 22.7687C8.89771 22.6951 9.17914 22.6124 9.46937 22.5388C10.0762 22.3825 10.2521 21.941 9.92671 21.3709C9.77719 21.1042 9.62768 20.8375 9.48696 20.5984C10.0498 20.0099 10.5863 19.449 11.158 18.8604C11.4218 19.0259 11.7121 19.2007 12.0023 19.3846C12.3805 19.6237 12.8642 19.4214 12.9697 18.98C13.0577 18.6397 13.1368 18.2903 13.2248 17.9316C13.9548 17.9316 14.6759 17.9316 15.4235 17.9316C15.4235 18.7041 15.4235 19.4765 15.4235 20.2582C13.6909 19.872 12.2661 20.3593 11.2899 21.9227C10.4632 23.2377 10.4544 24.663 11.2547 25.9873C12.2222 27.5874 13.6645 28.1023 15.4323 27.7069C15.4323 28.4886 15.4323 29.2518 15.4323 30.0335C14.7111 30.0427 13.9899 30.0427 13.2336 30.0427Z" fill="white"/>
<path d="M15.459 23.9825C15.459 24.7366 15.4502 25.4999 15.459 26.2539C15.459 26.4471 15.4062 26.539 15.2303 26.6034C14.1662 26.9804 12.9525 26.585 12.2753 25.6102C11.5893 24.6263 11.5981 23.3204 12.2929 22.3365C12.9701 21.3893 14.175 20.9939 15.2303 21.3709C15.4062 21.4353 15.4678 21.518 15.459 21.7112C15.4502 22.4744 15.459 23.2285 15.459 23.9825Z" fill="white"/>
<path d="M13.3474 39.9742C12.978 39.9742 12.6526 39.9742 12.292 39.9742C12.292 39.8362 12.292 39.7167 12.292 39.588C12.292 38.3097 12.292 37.0407 12.292 35.7624C12.292 35.5785 12.2656 35.459 12.0809 35.3578C11.4037 34.99 11.1047 34.2451 11.2894 33.5002C11.4741 32.7738 12.0985 32.268 12.8109 32.2588C13.5233 32.2588 14.1565 32.7554 14.3412 33.4818C14.5347 34.2267 14.2357 34.9808 13.5672 35.3486C13.3738 35.459 13.3386 35.5785 13.3386 35.7716C13.3474 37.0315 13.3386 38.3005 13.3386 39.5604C13.3474 39.6983 13.3474 39.827 13.3474 39.9742Z" fill="white"/>
<path d="M36.5745 10.207C36.9527 10.207 37.2781 10.207 37.6299 10.207C37.6299 10.345 37.6299 10.4737 37.6299 10.5933C37.6299 11.8715 37.6299 13.1405 37.6299 14.4188C37.6299 14.6027 37.6651 14.7222 37.841 14.8234C38.5094 15.1912 38.8172 15.9453 38.6325 16.681C38.4478 17.4075 37.8234 17.9132 37.111 17.9224C36.3986 17.9224 35.7654 17.4166 35.5807 16.6994C35.3872 15.9545 35.6862 15.2096 36.3546 14.8326C36.5305 14.7314 36.5833 14.6303 36.5745 14.4372C36.5657 13.1589 36.5745 11.8899 36.5745 10.6117C36.5745 10.4829 36.5745 10.3542 36.5745 10.207Z" fill="white"/>
<path d="M37.6226 8C37.6226 8.35864 37.6226 8.69889 37.6226 9.06673C37.2884 9.06673 36.9542 9.06673 36.6024 9.06673C36.6024 8.71728 36.6024 8.36784 36.6024 8C36.9366 8 37.262 8 37.6226 8Z" fill="white"/>
<path d="M12.3192 41.1052C12.6622 41.1052 12.9789 41.1052 13.3219 41.1052C13.3219 41.4547 13.3219 41.8041 13.3219 42.1812C12.9965 42.1812 12.6622 42.1812 12.3192 42.1812C12.3192 41.8133 12.3192 41.4639 12.3192 41.1052Z" fill="white"/>
<path d="M26.0038 10.2165C26.0038 10.5844 26.0038 10.9246 26.0038 11.2833C24.6054 11.2833 23.2246 11.2833 21.8262 11.2833C21.8262 10.943 21.8262 10.5936 21.8262 10.2165C23.1982 10.2165 24.5878 10.2165 26.0038 10.2165Z" fill="white"/>
<path d="M27.1031 10.1982C27.4461 10.1982 27.7628 10.1982 28.1146 10.1982C28.1146 10.5568 28.1146 10.9062 28.1146 11.2741C27.7803 11.2741 27.4549 11.2741 27.1031 11.2741C27.1031 10.9338 27.1031 10.5844 27.1031 10.1982Z" fill="white"/>
<path d="M22.8639 39.9652C22.8639 39.5973 22.8639 39.2571 22.8639 38.8984C24.2623 38.8984 25.6431 38.8984 27.0414 38.8984C27.0414 39.2387 27.0414 39.5881 27.0414 39.9652C25.6694 39.9652 24.2799 39.9652 22.8639 39.9652Z" fill="white"/>
<path d="M18.6423 39.9744C18.6423 39.6065 18.6423 39.2755 18.6423 38.9076C18.9853 38.9076 19.3195 38.9076 19.6625 38.9076C19.6625 39.2571 19.6625 39.6065 19.6625 39.9744C19.3283 39.9744 19.0029 39.9744 18.6423 39.9744Z" fill="white"/>
<path d="M31.2894 38.9076C31.2894 39.2663 31.2894 39.5973 31.2894 39.9652C30.9552 39.9652 30.621 39.9652 30.2604 39.9652C30.2604 39.6341 30.2604 39.2847 30.2604 38.9076C30.5946 38.9076 30.9288 38.9076 31.2894 38.9076Z" fill="white"/>
</svg>
