<svg width="51" height="51" viewBox="0 0 51 51" fill="none" xmlns="http://www.w3.org/2000/svg">
<rect width="51" height="51" rx="5" fill="#1E255E"/>
<path d="M36.4297 10H41.0011V14.5714H36.4297V10Z" fill="white"/>
<path d="M36.4297 16.8574H41.0011V21.4289H36.4297V16.8574Z" fill="white"/>
<path d="M29.5703 10H34.1417V14.5714H29.5703V10Z" fill="white"/>
<path d="M29.5703 16.8574H34.1417V21.4289H29.5703V16.8574Z" fill="white"/>
<path d="M38.7143 26.0002V32.8573H11.2857V14.5716H25V12.2859H11.2857C10.6795 12.2859 10.0981 12.5267 9.66947 12.9554C9.24082 13.384 9 13.9654 9 14.5716V32.8573C9 33.4635 9.24082 34.0449 9.66947 34.4736C10.0981 34.9022 10.6795 35.143 11.2857 35.143H20.4286V39.7145H15.8571V42.0002H34.1429V39.7145H29.5714V35.143H38.7143C39.3205 35.143 39.9019 34.9022 40.3305 34.4736C40.7592 34.0449 41 33.4635 41 32.8573V26.0002H38.7143ZM27.2857 39.7145H22.7143V35.143H27.2857V39.7145Z" fill="white"/>
</svg>
